<svg width="654" height="486" viewBox="0 0 654 486" fill="none" xmlns="http://www.w3.org/2000/svg">
<g clip-path="url(#clip0_66_1648)">
<path d="M588.469 448.746H545.148V449.073H588.469V448.746Z" fill="#EBEBEB"/>
<path d="M433.236 452.299H421.869V452.626H433.236V452.299Z" fill="#EBEBEB"/>
<path d="M543.841 436.624H518.74V436.951H543.841V436.624Z" fill="#EBEBEB"/>
<path d="M125.11 438.819H68.6172V439.145H125.11V438.819Z" fill="#EBEBEB"/>
<path d="M145.043 438.819H136.764V439.145H145.043V438.819Z" fill="#EBEBEB"/>
<path d="M294.496 444.331H171.963V444.657H294.496V444.331Z" fill="#EBEBEB"/>
<path d="M311.827 369.47H59.2519C55.1317 369.47 51.7832 366.126 51.7832 362.012V7.45864C51.7832 3.34398 55.1317 0 59.2519 0H311.827C315.947 0 319.295 3.34398 319.295 7.45864V362.012C319.295 366.126 315.947 369.47 311.827 369.47ZM59.2519 0.32656C55.3148 0.32656 52.1102 3.52685 52.1102 7.45864V362.012C52.1102 365.943 55.3148 369.144 59.2519 369.144H311.827C315.764 369.144 318.968 365.943 318.968 362.012V7.45864C318.968 3.52685 315.764 0.32656 311.827 0.32656H59.2519Z" fill="#EBEBEB"/>
<path d="M594.747 369.47H342.172C338.052 369.47 334.703 366.126 334.703 362.012V7.45864C334.703 3.34398 338.052 0 342.172 0H594.747C598.867 0 602.215 3.34398 602.215 7.45864V362.012C602.215 366.126 598.867 369.47 594.747 369.47ZM342.172 0.32656C338.235 0.32656 335.03 3.52685 335.03 7.45864V362.012C335.03 365.943 338.235 369.144 342.172 369.144H594.747C598.684 369.144 601.888 365.943 601.888 362.012V7.45864C601.888 3.52685 598.684 0.32656 594.747 0.32656H342.172Z" fill="#EBEBEB"/>
<path d="M654 427.729H0V428.055H654V427.729Z" fill="#EBEBEB"/>
<path d="M156.084 339.361C154.985 326.743 142.088 322.028 126.798 323.36C111.52 324.692 99.6437 331.589 100.742 344.194L156.084 339.361Z" fill="#F0F0F0"/>
<path d="M126.3 317.586C133.39 316.972 135.652 310.99 135.038 303.897C134.423 296.817 131.153 291.318 124.05 291.932C116.961 292.546 114.698 298.528 115.313 305.621C115.941 312.714 119.211 318.213 126.3 317.586Z" fill="#F0F0F0"/>
<path d="M444.851 70.5631C445.191 74.4688 442.3 77.9172 438.39 78.2569C434.479 78.5965 431.025 75.7097 430.685 71.804C430.345 67.8984 433.236 64.4499 437.147 64.1103C441.058 63.7707 444.511 66.6574 444.851 70.5631Z" fill="#F5F5F5"/>
<path d="M484.183 67.1278C484.523 71.0335 481.632 74.4819 477.722 74.8216C473.811 75.1612 470.357 72.2744 470.017 68.3687C469.677 64.4631 472.568 61.0146 476.479 60.675C480.403 60.3353 483.843 63.2221 484.183 67.1278Z" fill="#F5F5F5"/>
<path d="M523.527 63.6923C523.867 67.598 520.976 71.0465 517.065 71.3861C513.154 71.7257 509.701 68.8389 509.361 64.9333C509.021 61.0276 511.912 57.5791 515.823 57.2395C519.734 56.8868 523.174 59.7867 523.527 63.6923Z" fill="#F5F5F5"/>
<path d="M448.357 110.599C448.697 114.505 445.806 117.954 441.895 118.293C437.984 118.633 434.531 115.746 434.191 111.84C433.851 107.935 436.742 104.486 440.653 104.147C444.564 103.807 448.017 106.694 448.357 110.599Z" fill="#F5F5F5"/>
<path d="M487.689 107.164C488.029 111.07 485.138 114.518 481.227 114.858C477.316 115.197 473.863 112.311 473.523 108.405C473.183 104.499 476.074 101.051 479.985 100.711C483.909 100.372 487.349 103.258 487.689 107.164Z" fill="#F5F5F5"/>
<path d="M527.033 103.729C527.373 107.634 524.482 111.083 520.571 111.422C516.66 111.762 513.207 108.875 512.867 104.97C512.527 101.064 515.418 97.6154 519.329 97.2758C523.239 96.9362 526.693 99.823 527.033 103.729Z" fill="#F5F5F5"/>
<path d="M451.863 150.636C452.203 154.541 449.312 157.99 445.401 158.329C441.49 158.669 438.037 155.782 437.697 151.877C437.357 147.971 440.248 144.523 444.159 144.183C448.083 143.843 451.523 146.73 451.863 150.636Z" fill="#F5F5F5"/>
<path d="M491.207 147.2C491.547 151.106 488.656 154.554 484.745 154.894C480.834 155.234 477.381 152.347 477.041 148.441C476.701 144.536 479.591 141.087 483.502 140.747C487.413 140.408 490.853 143.295 491.207 147.2Z" fill="#F5F5F5"/>
<path d="M530.539 143.765C530.879 147.671 527.988 151.119 524.077 151.459C520.166 151.798 516.713 148.911 516.373 145.006C516.033 141.1 518.923 137.652 522.834 137.312C526.745 136.972 530.198 139.859 530.539 143.765Z" fill="#F5F5F5"/>
<path d="M522.037 146.077L441.216 153.144L512.868 66.1873L439.45 72.6009C438.586 72.6793 437.841 72.0392 437.762 71.1902C437.684 70.3281 438.325 69.5835 439.175 69.5051L519.996 62.4384L448.344 149.395L521.762 142.981C522.625 142.903 523.371 143.543 523.449 144.392C523.528 145.241 522.9 145.999 522.037 146.077Z" fill="#E6E6E6"/>
<path d="M523.278 301.284C523.016 300.514 522.323 299.939 521.512 299.887C517.81 299.639 514.671 298.254 512.199 295.772C508.968 292.533 507.072 287.595 506.758 281.743C506.705 280.646 505.79 279.797 504.691 279.797C503.475 279.784 502.52 280.816 502.585 282.017C502.965 288.888 505.28 294.753 509.243 298.724C512.33 301.82 516.319 303.636 520.858 304.028C520.936 304.041 521.041 304.041 521.159 304.054C522.637 304.184 523.775 302.708 523.278 301.284Z" fill="#F0F0F0"/>
<path d="M519.093 326.364C501.762 324.849 489.257 313.054 485.294 294.636C485.045 293.46 485.791 292.31 486.981 292.101C488.08 291.906 489.139 292.611 489.375 293.695C492.919 310.258 504.051 320.865 519.459 322.21C536.358 323.686 554.5 312.583 557.744 284.604C557.875 283.467 558.869 282.631 560.007 282.736C561.171 282.84 562.047 283.872 561.903 285.035C558.803 311.395 541.433 328.311 519.093 326.364Z" fill="#F0F0F0"/>
<path d="M486.393 276.283C485.228 276.178 484.352 275.147 484.496 273.984C487.609 247.598 504.979 230.682 527.32 232.641C546.888 234.353 560.072 248.982 562.139 271.019C562.243 272.181 561.341 273.2 560.177 273.266C559.039 273.331 558.071 272.469 557.966 271.345C556.083 251.49 544.337 238.337 526.967 236.808C510.067 235.332 491.925 246.435 488.682 274.415C488.525 275.538 487.53 276.387 486.393 276.283Z" fill="#F0F0F0"/>
<path d="M519.943 315.17C516.726 314.882 513.704 314.138 510.918 312.923C509.793 312.427 509.322 311.068 509.911 309.997C510.421 309.057 511.572 308.652 512.553 309.083C515.156 310.232 518.047 310.898 521.147 311.068C533.965 311.8 547.49 302.734 548.811 280.842C549.622 267.348 545.005 256.454 536.359 251.242C535.43 250.681 535.09 249.518 535.561 248.538C536.097 247.441 537.484 247.036 538.53 247.663C548.523 253.685 553.899 265.99 552.983 281.077C551.702 302.199 538.517 316.241 520.898 315.235C520.597 315.222 520.27 315.196 519.943 315.17Z" fill="#F0F0F0"/>
<path d="M501.316 302.133C500.309 302.826 498.922 302.499 498.307 301.441C494.593 295.041 492.866 286.772 493.402 277.903C494.619 257.695 506.757 243.967 523.225 243.705C524.441 243.679 525.435 244.711 525.37 245.926C525.305 247.01 524.428 247.872 523.329 247.885C511.113 248.12 498.844 257.342 497.588 278.151C497.104 286.223 498.648 293.682 501.957 299.39C502.493 300.331 502.205 301.533 501.316 302.133Z" fill="#F0F0F0"/>
<path d="M529.909 300.435C529.478 299.469 529.857 298.345 530.76 297.797C536.253 294.492 539.641 287.543 539.693 279.183C539.732 272.482 537.797 266.813 534.213 263.221C531.453 260.451 527.882 259.054 523.592 259.067C517.143 259.08 511.924 262.607 509.034 268.824C508.576 269.804 507.451 270.261 506.431 269.895C505.28 269.477 504.73 268.145 505.254 267.035C508.837 259.406 515.547 254.913 523.592 254.887C528.954 254.874 533.65 256.742 537.182 260.282C541.564 264.671 543.944 271.398 543.892 279.222C543.826 289.097 539.667 297.379 532.879 301.428C531.806 302.055 530.406 301.572 529.909 300.435Z" fill="#F0F0F0"/>
<path d="M514.841 285.074C513.65 285.557 512.316 284.865 512.015 283.624C511.872 283.062 511.767 282.475 511.675 281.874C510.485 274.062 514.697 267.257 521.459 266.042C524.952 265.415 528.065 266.238 530.445 268.354C531.413 269.216 531.335 270.758 530.288 271.502L530.157 271.594C529.359 272.155 528.326 272.038 527.581 271.398C526.168 270.183 524.363 269.765 522.205 270.144C517.051 271.058 515.089 276.414 515.822 281.234C515.887 281.704 515.979 282.161 516.083 282.592C516.332 283.624 515.822 284.682 514.841 285.074Z" fill="#F0F0F0"/>
<path d="M521.761 293.12H521.748C520.309 292.99 519.511 291.383 520.283 290.155L520.466 289.868C520.858 289.254 521.538 288.914 522.271 288.967C522.886 289.006 523.553 288.967 524.233 288.849C528.732 288.039 530.799 283.859 530.76 279.601C530.747 278.543 531.492 277.628 532.539 277.459C533.768 277.276 534.932 278.19 534.945 279.431C535.076 286.25 531.047 291.88 524.965 292.964C523.853 293.16 522.781 293.212 521.761 293.12Z" fill="#F0F0F0"/>
<path d="M522.69 285.4C520.466 285.205 518.805 283.702 518.19 281.56C517.837 280.319 518.884 279.117 520.166 279.235L520.649 279.274C521.395 279.34 522.01 279.849 522.258 280.554C522.376 280.894 522.612 281.194 523.043 281.234C524.05 281.325 524.22 279.875 524.246 279.588C524.26 279.379 524.312 278.582 523.959 278.112C523.619 277.654 523.396 277.119 523.449 276.544C523.606 274.689 525.96 273.932 527.15 275.382C528.092 276.531 528.576 278.138 528.419 279.953C528.131 283.376 525.711 285.662 522.69 285.4Z" fill="#F0F0F0"/>
<path d="M483.345 238.65C482.194 238.546 481.344 237.54 481.448 236.39L483.031 218.273L501.173 219.853C502.324 219.958 503.174 220.964 503.069 222.113C502.965 223.263 501.958 224.112 500.807 224.02L486.837 222.805L485.621 236.756C485.516 237.906 484.496 238.755 483.345 238.65Z" fill="#F0F0F0"/>
<path d="M569.58 246.187C568.429 246.083 567.579 245.077 567.684 243.927L568.9 229.977L554.931 228.762C553.78 228.657 552.929 227.652 553.034 226.502C553.139 225.353 554.146 224.504 555.297 224.608L573.439 226.189L571.856 244.306C571.752 245.43 570.731 246.292 569.58 246.187Z" fill="#F0F0F0"/>
<path d="M563.159 343.567L545.017 341.987C543.866 341.882 543.015 340.877 543.12 339.727C543.225 338.578 544.232 337.729 545.383 337.833L559.352 339.048L560.569 325.097C560.673 323.948 561.681 323.099 562.832 323.19C563.983 323.295 564.833 324.3 564.741 325.45L563.159 343.567Z" fill="#F0F0F0"/>
<path d="M490.892 337.245L472.75 335.665L474.333 317.547C474.437 316.398 475.444 315.549 476.596 315.64C477.747 315.745 478.597 316.75 478.492 317.9L477.276 331.851L491.245 333.065C492.396 333.17 493.246 334.176 493.155 335.325C493.05 336.501 492.043 337.35 490.892 337.245Z" fill="#F0F0F0"/>
<path d="M97.7477 298.045C97.0414 298.11 96.4136 297.588 96.3482 296.882L95.3672 285.74L106.524 284.761C107.231 284.695 107.859 285.218 107.924 285.923C107.989 286.628 107.466 287.255 106.76 287.321L98.1794 288.065L98.9249 296.634C98.9773 297.366 98.4541 297.993 97.7477 298.045Z" fill="#E0E0E0"/>
<path d="M150.773 293.421C150.067 293.486 149.439 292.964 149.374 292.258L148.628 283.689L140.048 284.434C139.341 284.499 138.713 283.977 138.648 283.271C138.583 282.566 139.106 281.939 139.812 281.874L150.969 280.894L151.95 292.036C152.003 292.729 151.48 293.356 150.773 293.421Z" fill="#E0E0E0"/>
<path d="M156.267 341.373L145.11 342.353C144.404 342.418 143.776 341.895 143.711 341.19C143.645 340.485 144.168 339.858 144.875 339.792L153.455 339.048L152.71 330.479C152.644 329.774 153.167 329.147 153.874 329.081C154.58 329.016 155.208 329.538 155.273 330.244L156.267 341.373Z" fill="#E0E0E0"/>
<path d="M111.821 345.253L100.664 346.232L99.6833 335.09C99.6179 334.385 100.141 333.758 100.847 333.692C101.554 333.627 102.182 334.149 102.247 334.855L102.992 343.424L111.573 342.679C112.279 342.614 112.907 343.136 112.973 343.842C113.064 344.56 112.541 345.187 111.821 345.253Z" fill="#E0E0E0"/>
<path d="M149.87 112.337L107.19 116.059L106.314 106.08C105.411 95.7343 113.102 86.5776 123.461 85.6763C133.821 84.775 142.99 92.4557 143.892 102.801L144.403 108.601L150.563 108.065L150.053 102.266C148.85 88.5239 136.685 78.3222 122.925 79.5239C109.165 80.7256 98.9626 92.8867 100.166 106.628L101.042 116.66C96.0719 117.627 92.5403 122.199 92.985 127.345L96.0327 162.144C96.5166 167.643 101.369 171.718 106.889 171.235L154.67 167.055C160.177 166.572 164.258 161.726 163.774 156.213L160.726 121.415C160.242 115.916 155.39 111.853 149.87 112.337ZM131.741 139.154L132.787 151.132C132.958 153.104 131.506 154.829 129.531 155.012C127.555 155.181 125.829 153.731 125.646 151.759L124.599 139.781C123.03 138.814 121.918 137.168 121.735 135.196C121.447 131.878 123.893 128.965 127.215 128.678C130.525 128.39 133.455 130.833 133.742 134.151C133.939 136.11 133.114 137.926 131.741 139.154Z" fill="#EBEBEB"/>
<path d="M222.936 132.505L218.62 125.477C216.279 125.804 214.369 125.804 212.028 125.477L207.711 132.505L206.887 132.283C204.101 131.538 201.42 130.428 198.908 128.978L198.163 128.547L199.994 120.919C200.138 120.305 200.766 119.926 201.381 120.07C201.995 120.213 202.375 120.84 202.231 121.454L200.805 127.398C202.675 128.417 204.624 129.226 206.652 129.827L210.864 122.969L211.622 123.1C214.068 123.505 216.553 123.505 218.999 123.1L219.758 122.969L223.97 129.827C225.984 129.226 227.946 128.417 229.816 127.398L227.946 119.586L228.574 119.142C230.287 117.914 231.805 116.464 233.113 114.819C233.505 114.335 234.198 114.218 234.695 114.583C235.218 114.962 235.349 115.707 234.944 116.216C233.662 117.836 232.184 119.286 230.536 120.553L232.459 128.56L231.713 128.991C229.202 130.441 226.52 131.551 223.734 132.296L222.936 132.505ZM196.489 117.17C196.122 116.752 195.769 116.334 195.442 115.89L187.424 117.81L186.993 117.065C185.541 114.557 184.429 111.879 183.683 109.097L183.461 108.274L190.498 103.964C190.341 102.788 190.263 101.717 190.263 100.672C190.263 99.64 190.341 98.5558 190.498 97.3802L183.461 93.0696L183.683 92.2467C184.429 89.4644 185.541 86.7866 186.993 84.2786L187.424 83.5341L195.442 85.4542C196.789 83.7039 198.346 82.1495 200.099 80.804L198.647 74.7431C198.503 74.1291 198.882 73.5021 199.497 73.3585C200.112 73.2148 200.74 73.5936 200.884 74.2075L202.689 81.7576L202.061 82.2148C200.046 83.6647 198.294 85.4151 196.842 87.4267L196.397 88.0537L188.562 86.1857C187.555 88.0537 186.731 90 186.142 92.0246L193.009 96.2307L192.892 96.9884C192.669 98.3338 192.565 99.5355 192.565 100.672C192.565 101.808 192.669 103.01 192.892 104.356L193.022 105.113L186.155 109.319C186.757 111.331 187.568 113.29 188.575 115.158L196.41 113.29L196.855 113.917C197.287 114.505 197.731 115.08 198.215 115.628C198.621 116.086 198.608 116.765 198.163 117.196L198.124 117.235C197.666 117.692 196.92 117.653 196.489 117.17ZM243.237 117.81L240.28 117.104C239.666 116.961 239.286 116.334 239.43 115.72C239.574 115.106 240.202 114.727 240.817 114.871L242.099 115.171C243.106 113.303 243.93 111.357 244.518 109.332L237.651 105.126L237.782 104.369C238.005 103.023 238.109 101.821 238.109 100.685C238.109 99.5486 238.005 98.3468 237.782 97.0014L237.651 96.2438L244.518 92.0377C243.917 90.0261 243.106 88.0667 242.099 86.1988L234.264 88.0667L233.806 87.4397C232.354 85.4281 230.601 83.6778 228.587 82.2278L227.959 81.7706L229.83 73.9463C227.959 72.9405 226.01 72.1175 223.983 71.5167L219.771 78.3744L219.012 78.2569C216.566 77.865 214.081 77.865 211.635 78.2569L210.877 78.3744L206.665 71.5297C206.403 71.6081 206.142 71.6865 205.88 71.7779C205.291 71.9738 204.664 71.6603 204.454 71.0856C204.232 70.4847 204.546 69.8055 205.161 69.5965C205.736 69.4136 206.312 69.2438 206.887 69.087L207.711 68.865L212.028 75.8926C214.369 75.566 216.266 75.566 218.62 75.8926L222.936 68.865L223.76 69.087C226.546 69.8316 229.228 70.9419 231.739 72.3918L232.485 72.8229L230.562 80.8302C232.315 82.1756 233.871 83.73 235.219 85.4804L243.237 83.5602L243.668 84.3048C245.12 86.8127 246.232 89.4905 246.977 92.2728L247.2 93.0958L240.163 97.4064C240.32 98.582 240.398 99.6661 240.398 100.698C240.398 101.73 240.32 102.814 240.163 103.99L247.2 108.3L246.977 109.123C246.232 111.906 245.12 114.583 243.668 117.091L243.237 117.81ZM215.01 111.88C209.163 111.71 204.297 106.85 204.127 101.012C203.957 95.1335 208.365 90.222 214.042 89.5558C214.722 89.4775 215.337 90.013 215.337 90.7053C215.337 91.2801 214.905 91.7765 214.33 91.8418C209.32 92.4034 205.553 97.1451 206.599 102.475C207.28 105.936 210.079 108.731 213.545 109.411C219.235 110.521 224.244 106.184 224.244 100.685C224.244 98.8432 223.682 97.0667 222.636 95.5776C222.309 95.1074 222.4 94.4673 222.832 94.0885C223.355 93.6313 224.153 93.7228 224.545 94.2975C225.853 96.1654 226.546 98.3991 226.546 100.698C226.546 106.968 221.341 112.049 215.01 111.88Z" fill="#F0F0F0"/>
<path d="M141.669 228.122L138.883 223.589C137.378 223.798 136.136 223.798 134.632 223.589L131.846 228.122L131.309 227.978C129.517 227.495 127.778 226.776 126.156 225.849L125.672 225.575L126.849 220.65C126.941 220.245 127.346 220.01 127.752 220.102C128.157 220.193 128.392 220.598 128.301 221.003L127.372 224.843C128.576 225.496 129.844 226.019 131.152 226.411L133.873 221.983L134.37 222.061C135.953 222.322 137.562 222.322 139.131 222.061L139.628 221.983L142.349 226.411C143.657 226.019 144.913 225.496 146.129 224.843L144.913 219.788L145.318 219.501C146.43 218.704 147.411 217.776 148.248 216.705C148.496 216.392 148.941 216.314 149.268 216.549C149.608 216.797 149.687 217.28 149.425 217.607C148.588 218.652 147.633 219.592 146.574 220.402L147.816 225.575L147.332 225.849C145.71 226.79 143.984 227.508 142.179 227.978L141.669 228.122ZM124.586 218.208C124.351 217.946 124.128 217.659 123.906 217.385L118.726 218.626L118.452 218.142C117.51 216.523 116.791 214.798 116.32 212.996L116.176 212.46L120.715 209.678C120.61 208.92 120.558 208.228 120.558 207.549C120.558 206.882 120.61 206.177 120.715 205.419L116.176 202.637L116.32 202.102C116.804 200.312 117.523 198.575 118.452 196.955L118.726 196.472L123.906 197.713C124.769 196.576 125.79 195.57 126.914 194.708L125.973 190.79C125.881 190.398 126.117 189.993 126.522 189.901C126.914 189.81 127.32 190.045 127.412 190.45L128.576 195.322L128.183 195.636C126.888 196.563 125.75 197.7 124.809 199.006L124.521 199.411L119.459 198.196C118.805 199.398 118.282 200.665 117.889 201.971L122.323 204.688L122.245 205.184C122.101 206.06 122.036 206.83 122.036 207.562C122.036 208.293 122.101 209.077 122.245 209.939L122.323 210.435L117.889 213.152C118.282 214.459 118.805 215.726 119.459 216.927L124.521 215.713L124.809 216.118C125.083 216.496 125.384 216.875 125.685 217.228C125.947 217.528 125.933 217.959 125.659 218.234L125.633 218.26C125.345 218.547 124.861 218.521 124.586 218.208ZM154.788 218.626L152.878 218.168C152.473 218.077 152.237 217.672 152.329 217.267C152.42 216.862 152.826 216.627 153.231 216.718L154.055 216.914C154.709 215.713 155.233 214.446 155.625 213.139L151.191 210.422L151.269 209.926C151.413 209.051 151.479 208.28 151.479 207.549C151.479 206.817 151.413 206.033 151.269 205.171L151.191 204.675L155.625 201.958C155.233 200.652 154.709 199.385 154.055 198.183L148.994 199.398L148.706 198.993C147.777 197.7 146.639 196.563 145.331 195.623L144.926 195.322L146.142 190.267C144.939 189.614 143.67 189.091 142.362 188.7L139.641 193.128L139.144 193.049C137.562 192.788 135.953 192.788 134.37 193.049L133.873 193.128L131.152 188.7C130.982 188.752 130.812 188.804 130.642 188.856C130.263 188.974 129.857 188.778 129.727 188.399C129.583 188.007 129.792 187.563 130.184 187.433C130.551 187.315 130.93 187.197 131.296 187.106L131.833 186.962L134.619 191.495C136.136 191.286 137.352 191.286 138.87 191.495L141.656 186.962L142.192 187.106C143.984 187.589 145.724 188.308 147.345 189.235L147.829 189.509L146.587 194.682C147.725 195.544 148.732 196.563 149.595 197.687L154.775 196.446L155.05 196.929C155.991 198.549 156.711 200.273 157.182 202.075L157.325 202.611L152.787 205.393C152.891 206.151 152.944 206.843 152.944 207.522C152.944 208.189 152.891 208.894 152.787 209.652L157.325 212.434L157.182 212.97C156.698 214.759 155.978 216.496 155.05 218.116L154.788 218.626ZM136.554 214.798C132.774 214.694 129.635 211.546 129.517 207.784C129.413 203.983 132.251 200.808 135.927 200.39C136.371 200.338 136.764 200.691 136.764 201.135C136.764 201.514 136.489 201.827 136.11 201.866C132.879 202.232 130.446 205.289 131.113 208.737C131.558 210.971 133.363 212.774 135.6 213.218C139.275 213.936 142.506 211.128 142.506 207.588C142.506 206.399 142.14 205.25 141.459 204.283C141.25 203.983 141.302 203.565 141.577 203.316C141.917 203.016 142.427 203.081 142.689 203.447C143.526 204.649 143.984 206.099 143.984 207.575C143.997 211.624 140.635 214.903 136.554 214.798Z" fill="#E6E6E6"/>
<path d="M327.001 486C467.065 486 580.609 479.38 580.609 471.213C580.609 463.047 467.065 456.427 327.001 456.427C186.937 456.427 73.3926 463.047 73.3926 471.213C73.3926 479.38 186.937 486 327.001 486Z" fill="#F5F5F5"/>
<path d="M475.391 118.698H432.803L402.68 462.566H445.268C457.38 462.566 468.093 452.73 469.152 440.634L495.43 140.643C496.489 128.547 487.504 118.698 475.391 118.698Z" fill="#315B9B"/>
<path d="M466.707 118.698H322.565C310.453 118.698 299.74 128.534 298.681 140.63L272.403 440.621C271.344 452.717 280.33 462.553 292.442 462.553H436.583C448.695 462.553 459.408 452.717 460.467 440.621L486.745 140.63C487.805 128.547 478.819 118.698 466.707 118.698Z" fill="#315B9B"/>
<path opacity="0.3" d="M466.707 118.698H322.565C310.453 118.698 299.74 128.534 298.681 140.63L272.403 440.621C271.344 452.717 280.33 462.553 292.442 462.553H436.583C448.695 462.553 459.408 452.717 460.467 440.621L486.745 140.63C487.805 128.547 478.819 118.698 466.707 118.698Z" fill="white"/>
<path opacity="0.4" d="M466.091 125.726H428.094C425.857 125.726 423.751 127.189 422.914 129.344C419.84 137.273 412.058 142.707 403.778 142.707H381.307C373.014 142.707 366.186 137.273 364.512 129.344C364.054 127.202 362.21 125.726 359.973 125.726H321.976C313.735 125.726 306.463 132.401 305.744 140.63L279.466 440.621C278.746 448.851 284.842 455.525 293.082 455.525H437.224C445.464 455.525 452.737 448.851 453.456 440.621L479.734 140.63C480.427 132.401 474.332 125.726 466.091 125.726Z" fill="white"/>
<path d="M430.174 288.692H329.301C326.306 288.692 324.095 286.276 324.357 283.284L324.867 277.524C325.129 274.533 327.771 272.116 330.753 272.116H431.626C434.621 272.116 436.832 274.533 436.57 277.524L436.06 283.284C435.812 286.263 433.169 288.692 430.174 288.692Z" fill="white"/>
<path d="M428.002 313.563H327.129C324.134 313.563 321.923 311.147 322.185 308.155L322.695 302.395C322.957 299.403 325.599 296.987 328.581 296.987H429.454C432.449 296.987 434.66 299.403 434.398 302.395L433.888 308.155C433.627 311.134 430.985 313.563 428.002 313.563Z" fill="white"/>
<path opacity="0.1" d="M399.529 131.356C399.241 134.673 396.311 137.351 393.002 137.351C389.679 137.351 387.233 134.66 387.521 131.356C387.809 128.038 390.739 125.36 394.048 125.36C397.37 125.36 399.816 128.038 399.529 131.356Z" fill="black"/>
<path opacity="0.1" d="M396.807 131.356C396.65 133.171 395.055 134.634 393.236 134.634C391.418 134.634 390.084 133.171 390.241 131.356C390.398 129.54 391.994 128.077 393.812 128.077C395.617 128.077 396.964 129.54 396.807 131.356Z" fill="black"/>
<g opacity="0.8">
<path d="M448.343 141.348C447.375 141.348 446.656 140.564 446.734 139.585L447.022 136.371C447.114 135.405 447.964 134.608 448.932 134.608C449.9 134.608 450.619 135.392 450.541 136.371L450.253 139.585C450.174 140.564 449.311 141.348 448.343 141.348Z" fill="white"/>
<path d="M462.417 141.348C461.45 141.348 460.73 140.565 460.809 139.585L461.463 132.048C461.554 131.081 462.404 130.284 463.372 130.284C464.34 130.284 465.06 131.068 464.981 132.048L464.327 139.585C464.249 140.565 463.385 141.348 462.417 141.348Z" fill="white"/>
<path d="M455.38 141.348C454.412 141.348 453.693 140.565 453.771 139.585L454.242 134.216C454.334 133.25 455.184 132.453 456.152 132.453C457.12 132.453 457.839 133.237 457.761 134.216L457.29 139.585C457.211 140.565 456.348 141.348 455.38 141.348Z" fill="white"/>
</g>
<g opacity="0.8">
<path d="M327.837 141.348H318.995C318.446 141.348 318.04 140.904 318.092 140.355L318.511 135.614C318.563 135.065 319.047 134.621 319.597 134.621H328.439C328.988 134.621 329.394 135.065 329.341 135.614L328.923 140.355C328.87 140.904 328.386 141.348 327.837 141.348Z" fill="white"/>
<path d="M331.931 140.068C331.381 140.068 330.976 139.624 331.028 139.075L331.224 136.907C331.276 136.358 331.76 135.914 332.31 135.914C332.859 135.914 333.265 136.358 333.212 136.907L333.016 139.075C332.964 139.624 332.48 140.068 331.931 140.068Z" fill="white"/>
</g>
<path d="M413.565 250.794C431.167 233.967 432.924 207.272 417.488 191.169C402.053 175.065 375.27 175.651 357.668 192.478C340.066 209.304 338.31 235.999 353.745 252.103C369.181 268.207 395.963 267.62 413.565 250.794Z" fill="white"/>
<path d="M385.755 220.01C374.65 220.01 365.285 224.229 364.487 233.386L363.598 243.549H403.792L404.682 233.386C405.48 224.216 396.86 220.01 385.755 220.01Z" fill="#F88730"/>
<path d="M386.12 215.817C391.274 215.817 393.641 211.65 394.099 206.504C394.544 201.357 392.909 197.19 387.755 197.19C382.602 197.19 380.234 201.357 379.777 206.504C379.332 211.65 380.967 215.817 386.12 215.817Z" fill="#F88730"/>
<path d="M425.57 280.097C422.824 280.097 420.521 281.142 420.312 283.402L420.09 285.91H430.018L430.24 283.402C430.449 281.142 428.317 280.097 425.57 280.097Z" fill="#315B9B"/>
<path d="M425.661 279.065C426.93 279.065 427.519 278.033 427.637 276.766C427.754 275.499 427.336 274.467 426.067 274.467C424.798 274.467 424.21 275.499 424.092 276.766C423.987 278.033 424.393 279.065 425.661 279.065Z" fill="#315B9B"/>
<path d="M395.002 338.434H355.749C351.158 338.434 347.77 334.724 348.175 330.139C348.581 325.554 352.623 321.845 357.201 321.845H396.454C401.045 321.845 404.433 325.554 404.027 330.139C403.635 334.711 399.593 338.434 395.002 338.434Z" fill="#315B9B"/>
<path d="M390.268 430.877H348.255C343.415 430.877 339.831 426.958 340.25 422.112L342.931 391.507C343.35 386.673 347.627 382.742 352.467 382.742H394.48C399.319 382.742 402.903 386.66 402.485 391.507L399.803 422.112C399.385 426.958 395.121 430.877 390.268 430.877Z" fill="#315B9B"/>
<g opacity="0.6">
<path d="M377.317 399.253C377.579 396.34 375.421 393.975 372.504 393.975C369.587 393.975 367.023 396.34 366.762 399.253C366.605 400.99 367.324 402.505 368.54 403.472L367.612 414.013C367.455 415.737 368.737 417.148 370.476 417.148C372.203 417.148 373.733 415.75 373.89 414.013L374.819 403.472C376.179 402.518 377.16 400.99 377.317 399.253Z" fill="white"/>
</g>
<path d="M394.858 389.129H389.443L390.764 373.99C391.562 364.898 384.8 357.492 375.683 357.492C366.566 357.492 358.509 364.898 357.711 373.99L356.39 389.129H350.975L352.296 373.99C353.355 361.907 364.055 352.084 376.154 352.084C388.253 352.084 397.226 361.907 396.166 373.99L394.858 389.129Z" fill="#315B9B"/>
<path d="M426.237 303.283L426.368 301.833C426.499 300.344 425.4 299.142 423.909 299.142C422.418 299.142 421.11 300.344 420.979 301.833L420.848 303.283C420.26 303.283 419.736 303.766 419.684 304.354L419.344 308.221C419.292 308.808 419.736 309.292 420.325 309.292H425.714C426.303 309.292 426.826 308.808 426.878 308.221L427.218 304.354C427.27 303.766 426.839 303.283 426.237 303.283ZM423.844 299.808C424.968 299.808 425.792 300.723 425.701 301.833L425.57 303.283H421.515L421.646 301.833C421.738 300.71 422.732 299.808 423.844 299.808Z" fill="#315B9B"/>
<path d="M345.115 304.837L343.232 304.446C343.01 304.393 342.892 304.171 342.983 303.949L343.768 302.094C343.938 301.702 343.454 301.402 343.153 301.715L341.728 303.179C341.558 303.348 341.283 303.348 341.152 303.179L339.988 301.715C339.74 301.402 339.203 301.689 339.308 302.094L339.766 303.949C339.818 304.171 339.661 304.406 339.439 304.446L337.49 304.837C337.071 304.916 337.019 305.504 337.424 305.595L339.308 305.987C339.53 306.039 339.648 306.261 339.556 306.483L338.772 308.338C338.602 308.73 339.086 309.03 339.386 308.717L340.812 307.254C340.982 307.084 341.257 307.084 341.388 307.254L342.552 308.717C342.8 309.03 343.337 308.743 343.232 308.338L342.774 306.483C342.722 306.261 342.879 306.026 343.101 305.987L345.05 305.595C345.469 305.504 345.521 304.916 345.115 304.837Z" fill="#263238"/>
<path d="M357.488 304.837L355.605 304.446C355.383 304.393 355.265 304.171 355.356 303.949L356.141 302.094C356.311 301.702 355.827 301.402 355.526 301.715L354.101 303.179C353.931 303.348 353.656 303.348 353.525 303.179L352.361 301.715C352.113 301.402 351.576 301.689 351.681 302.094L352.139 303.949C352.191 304.171 352.034 304.406 351.812 304.446L349.863 304.837C349.444 304.916 349.392 305.504 349.797 305.595L351.681 305.987C351.903 306.039 352.021 306.261 351.929 306.483L351.145 308.338C350.975 308.73 351.459 309.03 351.759 308.717L353.185 307.254C353.355 307.084 353.63 307.084 353.761 307.254L354.925 308.717C355.173 309.03 355.71 308.743 355.605 308.338L355.147 306.483C355.095 306.261 355.252 306.026 355.474 305.987L357.423 305.595C357.842 305.504 357.894 304.916 357.488 304.837Z" fill="#263238"/>
<path d="M369.863 304.837L367.98 304.446C367.758 304.393 367.64 304.171 367.731 303.949L368.516 302.094C368.686 301.702 368.202 301.402 367.901 301.715L366.476 303.179C366.306 303.348 366.031 303.348 365.9 303.179L364.736 301.715C364.488 301.402 363.951 301.689 364.056 302.094L364.514 303.949C364.566 304.171 364.409 304.406 364.187 304.446L362.238 304.837C361.819 304.916 361.767 305.504 362.172 305.595L364.056 305.987C364.278 306.039 364.396 306.261 364.304 306.483L363.52 308.338C363.35 308.73 363.834 309.03 364.134 308.717L365.56 307.254C365.73 307.084 366.005 307.084 366.136 307.254L367.3 308.717C367.548 309.03 368.085 308.743 367.98 308.338L367.522 306.483C367.47 306.261 367.627 306.026 367.849 305.987L369.798 305.595C370.217 305.504 370.269 304.916 369.863 304.837Z" fill="#263238"/>
<path d="M382.25 304.837L380.367 304.446C380.144 304.393 380.027 304.171 380.118 303.949L380.903 302.094C381.073 301.702 380.589 301.402 380.288 301.715L378.862 303.179C378.692 303.348 378.418 303.348 378.287 303.179L377.123 301.715C376.874 301.402 376.338 301.689 376.443 302.094L376.9 303.949C376.953 304.171 376.796 304.406 376.573 304.446L374.625 304.837C374.206 304.916 374.154 305.504 374.559 305.595L376.443 305.987C376.665 306.039 376.783 306.261 376.691 306.483L375.906 308.338C375.736 308.73 376.22 309.03 376.521 308.717L377.947 307.254C378.117 307.084 378.392 307.084 378.522 307.254L379.687 308.717C379.935 309.03 380.471 308.743 380.367 308.338L379.909 306.483C379.857 306.261 380.014 306.026 380.236 305.987L382.185 305.595C382.603 305.504 382.656 304.916 382.25 304.837Z" fill="#263238"/>
<path d="M394.623 304.837L392.74 304.446C392.517 304.393 392.4 304.171 392.491 303.949L393.276 302.094C393.446 301.702 392.962 301.402 392.661 301.715L391.235 303.179C391.065 303.348 390.791 303.348 390.66 303.179L389.496 301.715C389.247 301.402 388.711 301.689 388.816 302.094L389.273 303.949C389.326 304.171 389.169 304.406 388.946 304.446L386.998 304.837C386.579 304.916 386.527 305.504 386.932 305.595L388.816 305.987C389.038 306.039 389.156 306.261 389.064 306.483L388.279 308.338C388.109 308.73 388.593 309.03 388.894 308.717L390.32 307.254C390.49 307.084 390.765 307.084 390.895 307.254L392.06 308.717C392.308 309.03 392.844 308.743 392.74 308.338L392.282 306.483C392.23 306.261 392.387 306.026 392.609 305.987L394.558 305.595C394.976 305.504 395.029 304.916 394.623 304.837Z" fill="#263238"/>
<path d="M406.996 304.837L405.113 304.446C404.89 304.393 404.773 304.171 404.864 303.949L405.649 302.094C405.819 301.702 405.335 301.402 405.034 301.715L403.609 303.179C403.439 303.348 403.164 303.348 403.033 303.179L401.869 301.715C401.62 301.402 401.084 301.689 401.189 302.094L401.647 303.949C401.699 304.171 401.542 304.406 401.32 304.446L399.371 304.837C398.952 304.916 398.9 305.504 399.305 305.595L401.189 305.987C401.411 306.039 401.529 306.261 401.437 306.483L400.652 308.338C400.482 308.73 400.966 309.03 401.267 308.717L402.693 307.254C402.863 307.084 403.138 307.084 403.268 307.254L404.433 308.717C404.681 309.03 405.217 308.743 405.113 308.338L404.655 306.483C404.603 306.261 404.76 306.026 404.982 305.987L406.931 305.595C407.349 305.504 407.402 304.916 406.996 304.837Z" fill="#263238"/>
<path d="M377.161 277.785H353.917C352.479 277.785 351.197 278.961 351.079 280.398C350.948 281.835 352.021 283.01 353.46 283.01H376.703C378.142 283.01 379.424 281.835 379.541 280.398C379.672 278.948 378.613 277.785 377.161 277.785Z" fill="#263238"/>
<path d="M400.757 277.785H387.271C385.832 277.785 384.55 278.961 384.433 280.398C384.302 281.835 385.374 283.01 386.813 283.01H400.299C401.738 283.01 403.019 281.835 403.137 280.398C403.268 278.948 402.195 277.785 400.757 277.785Z" fill="#263238"/>
<path d="M418.559 396.196C409.795 399.697 402.117 404.791 396.859 410.578C393.772 407.952 389.39 406.136 384.145 405.3L383.531 405.209L383.256 408.292L383.596 408.422C388.776 410.382 393 413.856 395.8 418.467L396.244 419.186L396.728 418.415C402.117 409.794 409.978 402.583 418.86 398.09L419.16 397.933L419.344 395.882L418.559 396.196Z" fill="#263238"/>
<path opacity="0.2" d="M301.678 139.01C300.043 141.884 298.97 145.084 298.669 148.48L279.193 370.829H339.466L351.578 324.47L347.589 278.112L359.701 231.753L355.711 185.395L367.823 139.036H301.678V139.01Z" fill="black"/>
<path d="M350.478 172.306L362.59 125.948H210.169L198.07 172.306L202.046 218.678L189.947 265.036L193.923 311.395L181.824 357.766H334.232L346.344 311.395L342.355 265.036L354.467 218.678L350.478 172.306Z" fill="#315B9B"/>
<path opacity="0.7" d="M350.478 172.306L362.59 125.948H210.169L198.07 172.306L202.046 218.678L189.947 265.036L193.923 311.395L181.824 357.766H334.232L346.344 311.395L342.355 265.036L354.467 218.678L350.478 172.306Z" fill="white"/>
<path opacity="0.5" d="M350.479 172.306H198.07L210.169 125.948H362.591L350.479 172.306Z" fill="white"/>
<path opacity="0.5" d="M342.355 265.036H189.947L202.046 218.678H354.468L342.355 265.036Z" fill="white"/>
<path opacity="0.5" d="M334.232 357.766H181.824L193.923 311.395H346.344L334.232 357.766Z" fill="white"/>
<path opacity="0.2" d="M330.085 191.691C328.777 192.096 327.103 192.344 325.272 192.344C322.577 192.344 320.223 191.808 318.876 191.012C318.509 190.79 318.104 190.685 317.698 190.685C317.319 190.685 316.953 190.79 316.6 190.986C316.574 190.999 316.547 190.999 316.521 191.025C316.508 191.038 316.495 191.038 316.469 191.051C315.972 191.338 315.344 191.599 314.612 191.795C313.356 192.148 311.799 192.357 310.125 192.357C309.667 192.357 309.223 192.344 308.791 192.318C307.483 192.226 306.293 192.017 305.312 191.704C305.142 191.652 304.972 191.612 304.802 191.612C303.611 191.534 302.552 192.448 302.552 193.702V195.113H243.286C238.695 195.113 234.98 198.823 234.98 203.408V211.768C234.98 216.353 238.695 220.062 243.286 220.062H310.688C310.831 220.062 310.975 220.049 311.132 220.036C311.865 220.637 312.61 221.238 313.421 221.839C314.376 222.57 315.396 223.302 316.456 224.073C317.188 224.608 318.209 224.608 318.941 224.073C327.417 217.933 332.858 213.701 332.858 202.062V193.702C332.845 192.239 331.459 191.26 330.085 191.691Z" fill="black"/>
<path d="M309.406 215.425H242.005C237.414 215.425 233.699 211.716 233.699 207.131V198.771C233.699 194.186 237.414 190.476 242.005 190.476H309.406C313.997 190.476 317.712 194.186 317.712 198.771V207.131C317.699 211.716 313.984 215.425 309.406 215.425Z" fill="#315B9B"/>
<path d="M323.978 187.733C321.283 187.733 318.929 187.197 317.582 186.401C316.836 185.956 315.96 185.956 315.227 186.401C313.88 187.197 311.513 187.733 308.831 187.733C307 187.733 305.326 187.485 304.018 187.08C302.644 186.649 301.258 187.642 301.258 189.065V197.425C301.258 209.064 306.699 213.296 315.175 219.435C315.907 219.971 316.928 219.971 317.66 219.435C326.136 213.296 331.577 209.064 331.577 197.425V189.065C331.577 187.628 330.178 186.649 328.817 187.08C327.483 187.498 325.809 187.733 323.978 187.733Z" fill="#315B9B"/>
<path opacity="0.3" d="M323.978 187.733C321.283 187.733 318.929 187.197 317.582 186.401C316.836 185.956 315.96 185.956 315.227 186.401C313.88 187.197 311.513 187.733 308.831 187.733C307 187.733 305.326 187.485 304.018 187.08C302.644 186.649 301.258 187.642 301.258 189.065V197.425C301.258 209.064 306.699 213.296 315.175 219.435C315.907 219.971 316.928 219.971 317.66 219.435C326.136 213.296 331.577 209.064 331.577 197.425V189.065C331.577 187.628 330.178 186.649 328.817 187.08C327.483 187.498 325.809 187.733 323.978 187.733Z" fill="white"/>
<path opacity="0.2" d="M315.227 186.401C313.88 187.197 311.513 187.733 308.831 187.733C307 187.733 305.326 187.485 304.018 187.08C302.644 186.649 301.258 187.642 301.258 189.065V197.425C301.258 209.064 306.699 213.296 315.175 219.436C315.541 219.697 315.986 219.84 316.418 219.84V186.074C315.999 186.074 315.593 186.192 315.227 186.401Z" fill="white"/>
<path d="M328.557 195.152C323.076 197.412 318.394 200.717 315.32 204.466C313.175 202.768 310.232 201.592 306.779 201.057L306.373 200.991V202.99L306.608 203.068C310.075 204.335 313.005 206.582 315.084 209.573L315.411 210.044L315.686 209.534C318.681 203.956 323.364 199.28 328.858 196.367L329.041 196.263V194.93L328.557 195.152Z" fill="#263238"/>
<path d="M359.895 138.984H354.114C350.909 138.984 348.529 136.385 348.817 133.184L349.327 127.411C349.601 124.211 352.44 121.611 355.644 121.611H361.426C364.63 121.611 367.011 124.211 366.723 127.411L366.213 133.184C365.925 136.398 363.1 138.984 359.895 138.984Z" fill="#315B9B"/>
<path d="M362.303 127.398L361.047 126.026L357.882 128.926L355.24 126.026L353.735 127.398L356.391 130.298L353.238 133.198L354.494 134.582L357.646 131.682L360.301 134.582L361.793 133.198L359.137 130.298L362.303 127.398Z" fill="white"/>
<path d="M230.691 188.804C234.04 192.448 237.244 196.21 240.41 200.025C243.575 203.826 246.662 207.692 249.71 211.598C249.84 211.768 249.788 211.702 249.827 211.755C249.84 211.781 249.84 211.82 249.867 211.833C249.906 211.872 249.919 211.938 249.958 211.964C250.024 212.055 250.102 212.134 250.194 212.225C250.377 212.395 250.638 212.512 250.913 212.565C251.057 212.591 251.201 212.604 251.358 212.591C251.436 212.604 251.515 212.578 251.593 212.578C251.632 212.578 251.672 212.552 251.711 212.552C251.776 212.525 251.737 212.578 251.92 212.473L255.19 210.697C259.585 208.372 264.019 206.099 268.597 204.061L272.43 208.803C268.741 212.199 264.895 216.431 261.011 219.54L258.081 221.839C258.002 221.904 257.688 222.113 257.492 222.244C257.27 222.388 257.047 222.544 256.812 222.675C256.341 222.936 255.857 223.197 255.347 223.393C254.34 223.824 253.267 224.099 252.182 224.269C249.997 224.595 247.735 224.373 245.616 223.615C244.556 223.237 243.536 222.727 242.607 222.087C242.136 221.774 241.692 221.421 241.26 221.055C241.038 220.872 240.841 220.676 240.645 220.48L240.122 219.958C236.656 216.418 233.242 212.839 229.893 209.181C226.545 205.537 223.236 201.853 220.07 198.052L230.691 188.804Z" fill="#B55B52"/>
<path d="M266.818 206.948L269.866 197.164L277.897 201.161C277.897 201.161 276.733 208.293 270.886 209.534L266.818 206.948Z" fill="#B55B52"/>
<path d="M273.083 194.46L280.329 196.446L277.896 201.161L269.865 197.164L273.083 194.46Z" fill="#B55B52"/>
<path d="M188.47 191.469C187.594 195.623 186.535 199.737 185.41 203.826C184.298 207.927 183.081 212.003 181.813 216.052L181.342 217.58L181.106 218.338C181.054 218.508 181.028 218.547 180.976 218.652C180.832 219.03 180.74 219.461 180.727 219.893C180.701 220.768 180.91 221.734 181.486 222.57C181.538 222.701 181.983 223.184 182.336 223.563L183.422 224.739L185.567 227.129C186.979 228.749 188.379 230.369 189.713 232.067L185.161 237.331C183.278 236.26 181.473 235.11 179.668 233.948L176.986 232.184L175.665 231.283C175.22 230.969 174.854 230.76 174.135 230.16C171.65 228.057 169.792 225.065 169.112 221.734C168.759 220.075 168.68 218.351 168.877 216.64C168.929 216.235 169.007 215.752 169.073 215.399L169.217 214.615L169.491 213.048C170.224 208.855 171.009 204.675 171.885 200.534C172.761 196.38 173.69 192.239 174.815 188.138L188.47 191.469Z" fill="#B55B52"/>
<path d="M185.252 231.714L190.654 228.958L193.035 238.115C193.035 238.115 188.705 239.774 185.357 237.644L185.252 231.714Z" fill="#B55B52"/>
<path d="M198.097 226.032L198.345 234.431L192.315 238.376L190.223 229.141L198.097 226.032Z" fill="#B55B52"/>
<path d="M215.741 148.284C215.872 148.938 216.317 149.382 216.748 149.303C217.167 149.212 217.402 148.624 217.272 147.971C217.141 147.318 216.683 146.874 216.264 146.952C215.846 147.044 215.61 147.631 215.741 148.284Z" fill="#263238"/>
<path d="M216.266 149.395C216.266 149.395 218.502 152.83 220.49 154.306C219.562 155.612 217.508 155.521 217.508 155.521L216.266 149.395Z" fill="#A02724"/>
<path d="M212.642 145.163C212.55 145.163 212.459 145.123 212.38 145.058C212.223 144.914 212.21 144.666 212.354 144.509C213.819 142.929 215.585 143.216 215.663 143.229C215.873 143.268 216.017 143.464 215.977 143.673C215.938 143.882 215.742 144.026 215.533 143.987C215.48 143.974 214.094 143.778 212.93 145.032C212.851 145.123 212.747 145.163 212.642 145.163Z" fill="#263238"/>
<path d="M196.88 157.389C198.319 163.385 199.758 174.357 194.617 178.354C194.617 178.354 196.632 184.428 210.313 184.428C225.355 184.428 217.507 180.509 217.507 180.509C209.293 178.916 209.515 171.797 210.941 167.133L196.88 157.389Z" fill="#B55B52"/>
<path d="M193.009 179.464C192.106 177.805 191.125 175.898 193.166 175.297C195.415 174.644 209.843 173.43 214.081 174.657C212.773 176.969 214.983 179.817 214.983 179.817L193.009 179.464Z" fill="#263238"/>
<path d="M204.963 459.758H214.394L215.335 440.791H205.892L204.963 459.758Z" fill="#B55B52"/>
<path d="M145.07 457.145L154.632 457.642L160.439 438.962L150.878 438.453L145.07 457.145Z" fill="#B55B52"/>
<path d="M154.344 456.884L145.345 454.938C145.018 454.872 144.678 455.029 144.547 455.343L141.421 462.109C141.094 462.814 141.526 463.637 142.284 463.781C145.437 464.408 147.006 464.552 150.969 465.414C153.402 465.936 158.909 467.282 162.271 468C165.567 468.705 166.796 465.505 165.488 464.904C159.602 462.213 157.143 459.862 155.561 457.655C155.247 457.263 154.815 456.988 154.344 456.884Z" fill="#263238"/>
<path d="M213.897 458.804H204.937C204.597 458.804 204.309 459.039 204.244 459.366L202.622 466.641C202.452 467.399 203.027 468.117 203.799 468.104C207.03 468.052 211.699 467.856 215.754 467.856C220.502 467.856 224.609 468.117 230.168 468.117C233.53 468.117 234.472 464.721 233.059 464.408C226.637 463.01 221.405 462.853 215.859 459.444C215.27 459.065 214.603 458.804 213.897 458.804Z" fill="#263238"/>
<path d="M177.522 181.123C170.393 184.507 168.471 205.001 168.471 205.001L186.089 213.126C186.089 213.126 190.458 206.686 190.798 196.576C191.151 185.996 184.808 177.662 177.522 181.123Z" fill="#263238"/>
<path opacity="0.4" d="M187.084 193.768C183.906 198.692 184.207 206.334 185.305 212.774L186.09 213.139C186.09 213.139 190.472 206.699 190.799 196.589C190.812 195.962 190.812 195.335 190.799 194.721L187.084 193.768Z" fill="black"/>
<path d="M226.69 180.627C226.69 180.627 235.415 190.476 227.174 251.412C213.963 251.412 189.739 251.412 183.304 251.412C183.003 244.685 187.228 211.885 180.74 180.196C180.74 180.196 188.261 178.694 195.429 178.341C201.04 178.067 209.15 177.897 214.081 178.341C220.569 178.942 226.69 180.627 226.69 180.627Z" fill="#315B9B"/>
<path opacity="0.6" d="M226.69 180.627C226.69 180.627 235.415 190.476 227.174 251.412C213.963 251.412 189.739 251.412 183.304 251.412C183.003 244.685 187.228 211.885 180.74 180.196C180.74 180.196 188.261 178.694 195.429 178.341C201.04 178.067 209.15 177.897 214.081 178.341C220.569 178.942 226.69 180.627 226.69 180.627Z" fill="#FAFAFA"/>
<path opacity="0.2" d="M230.522 199.254L230.352 199.11L221.628 194.46C220.738 207.875 226.742 216.287 230.313 219.958C230.823 211.363 230.81 204.583 230.522 199.254Z" fill="black"/>
<path opacity="0.2" d="M215.336 440.791L214.852 450.562H205.408L205.892 440.791H215.336Z" fill="black"/>
<path opacity="0.2" d="M150.878 438.453L160.44 438.962L157.444 448.589L147.883 448.093L150.878 438.453Z" fill="black"/>
<path d="M193.846 151.302C195.951 159.152 196.789 163.855 201.641 167.12C208.94 172.032 218.03 166.389 218.305 158.068C218.567 150.583 215.074 138.997 206.638 137.417C198.319 135.849 191.74 143.438 193.846 151.302Z" fill="#B55B52"/>
<path d="M211.621 251.425C211.621 251.425 202.308 314.02 197.207 337.467C191.609 363.148 161.603 448.106 161.603 448.106L146.928 444.932C146.928 444.932 165.737 375.701 170.432 339.792C172.264 325.789 174.474 303.205 177.273 284.369C179.981 266.133 183.316 251.425 183.316 251.425H211.621Z" fill="#263238"/>
<path d="M165.123 443.194C165.188 443.207 162.389 448.498 162.389 448.498L145.869 444.932L147.256 439.968L165.123 443.194Z" fill="#315B9B"/>
<path opacity="0.6" d="M165.123 443.194C165.188 443.207 162.389 448.498 162.389 448.498L145.869 444.932L147.256 439.968L165.123 443.194Z" fill="white"/>
<path opacity="0.6" d="M205.736 273.723C194.971 275.826 196.109 315.914 197.404 336.527C200.504 321.949 205.056 293.917 208.156 274.01C207.449 273.657 206.638 273.54 205.736 273.723Z" fill="black"/>
<path d="M227.173 251.425C227.173 251.425 231.555 312.662 230.653 337.637C229.724 363.618 217.39 448.681 217.39 448.681H203.499C203.499 448.681 202.989 365.133 202.374 339.623C201.694 311.813 198.332 251.425 198.332 251.425H227.173Z" fill="#263238"/>
<path d="M220.072 443.142C220.137 443.142 219.287 448.903 219.287 448.903H202.387L201.93 443.756L220.072 443.142Z" fill="#315B9B"/>
<path opacity="0.6" d="M220.072 443.142C220.137 443.142 219.287 448.903 219.287 448.903H202.387L201.93 443.756L220.072 443.142Z" fill="white"/>
<path d="M221.576 192.096C221.576 208.528 230.34 215.295 230.34 215.295L244.571 201.396C244.571 201.396 239.731 193.075 233.074 185.421C224.846 175.99 221.576 181.528 221.576 192.096Z" fill="#263238"/>
<path opacity="0.2" d="M217.809 161.046C217.442 162.052 216.501 163.763 214.12 164.443C210.641 165.435 210.602 168.374 210.602 168.374L210.641 168.427C213.95 167.329 216.71 164.599 217.809 161.046Z" fill="black"/>
<path d="M214.12 135.692C217.05 131.996 212.538 131.826 212.538 131.826C213.715 127.424 208.431 129.788 208.431 129.788C205.265 125.425 203.473 130.729 203.473 130.729C200.19 127.032 199.589 133.067 199.589 133.067C196.292 128.377 194.618 135.144 194.618 135.144C191.584 130.271 189.726 136.62 189.726 136.62C183.461 134.386 186.443 140.878 186.443 140.878C181.093 141.022 185.384 145.163 185.384 145.163C178.974 145.176 184.625 148.846 184.625 148.846C179.537 152.177 185.92 153.078 185.92 153.078C181.774 159.557 188.902 157.154 188.902 157.154C186.012 163.567 192.421 160.746 192.421 160.746C192.002 166.938 195.586 165.252 197.313 164.103C197.64 165.344 198.267 166.676 199.419 166.82C201.655 167.107 202.087 162.901 202.087 162.901C202.087 162.901 204.167 164.508 205.893 163.633C207.633 162.758 206.979 160.55 206.979 160.55C206.979 160.55 208.313 161.543 209.529 160.589C210.275 160.014 210.275 155.848 209.333 154.385L212.734 153.052C212.734 153.052 215.258 152.7 214.134 149.369C213.009 146.038 213.963 143.412 213.963 143.412C217.809 141.61 214.657 139.454 214.657 139.454C219.078 136.607 214.12 135.692 214.12 135.692Z" fill="#263238"/>
<path d="M207.226 151.628C207.762 153.692 209.123 155.456 210.535 156.514C212.667 158.094 214.263 156.54 214.106 154.123C213.975 151.955 212.693 148.506 210.339 147.866C208.024 147.239 206.611 149.264 207.226 151.628Z" fill="#B55B52"/>
</g>
<defs>
<clipPath id="clip0_66_1648">
<rect width="654" height="486" fill="white"/>
</clipPath>
</defs>
</svg>
