<svg width="276" height="259" viewBox="0 0 276 259" fill="none" xmlns="http://www.w3.org/2000/svg">
<g clip-path="url(#clip0_379_5426)">
<path d="M0 45.3796L182.604 71.6715L207.114 96.4168L0 45.3796Z" fill="#648ECE"/>
<path opacity="0.6" d="M0 45.3796L182.604 71.6715L207.114 96.4168L0 45.3796Z" fill="white"/>
<path d="M0 45.3796L182.604 71.6715L174.129 107.451L0 45.3796Z" fill="#648ECE"/>
<path opacity="0.2" d="M0 45.3796L182.604 71.6715L174.129 107.451L0 45.3796Z" fill="black"/>
<path d="M170.38 3.9586L180.985 53.6655C181.562 56.358 179.832 59.0264 177.141 59.6034L82.5588 79.7971C79.8675 80.3741 77.2001 78.6432 76.6234 75.9507L66.0182 26.2438C65.7218 24.8334 66.0502 23.4311 66.8192 22.3332C67.5241 21.3316 68.5894 20.5863 69.871 20.3059L164.445 0.112181C165.726 -0.160273 167.008 0.0881411 168.057 0.713184C169.203 1.40233 170.084 2.55626 170.38 3.9586Z" fill="#648ECE"/>
<path opacity="0.4" d="M170.38 3.9586L180.985 53.6655C181.562 56.358 179.832 59.0264 177.141 59.6034L82.5588 79.7971C79.8675 80.3741 77.2001 78.6432 76.6234 75.9507L66.0182 26.2438C65.7218 24.8334 66.0502 23.4311 66.8192 22.3332C67.5241 21.3316 68.5894 20.5863 69.871 20.3059L164.445 0.112181C165.726 -0.160273 167.008 0.0881411 168.057 0.713184C169.203 1.40233 170.084 2.55626 170.38 3.9586Z" fill="black"/>
<path d="M168.057 0.713184L136.449 39.5219C130.41 46.9343 120.037 49.154 111.498 44.8508L66.8105 22.3252C67.5154 21.3236 68.5808 20.5783 69.8623 20.2978L164.444 0.112181C165.726 -0.160273 167.007 0.0881411 168.057 0.713184Z" fill="#648ECE"/>
<path d="M0 45.3796L150.612 81.1834L174.129 107.451L0 45.3796Z" fill="#648ECE"/>
<path opacity="0.6" d="M0 45.3796L150.612 81.1834L174.129 107.451L0 45.3796Z" fill="white"/>
<path d="M54.9381 79.9014L54.5332 80.5928L71.2924 90.4159L71.6973 89.7245L54.9381 79.9014Z" fill="#648ECE"/>
<path d="M79.0963 94.0653L78.6914 94.7567L84.7178 98.289L85.1227 97.5976L79.0963 94.0653Z" fill="#648ECE"/>
<path d="M0 45.3796L150.612 81.1834L121.335 116.49L0 45.3796Z" fill="#648ECE"/>
<path d="M201.45 129.28C201.257 129.28 201.057 129.24 200.857 129.167L176.322 119.447C175.497 119.119 175.097 118.189 175.425 117.364C175.754 116.538 176.675 116.138 177.508 116.466L202.042 126.186C202.867 126.515 203.268 127.445 202.94 128.27C202.691 128.895 202.091 129.28 201.45 129.28Z" fill="#648ECE"/>
<path opacity="0.3" d="M201.45 129.28C201.257 129.28 201.057 129.24 200.857 129.167L176.322 119.447C175.497 119.119 175.097 118.189 175.425 117.364C175.754 116.538 176.675 116.138 177.508 116.466L202.042 126.186C202.867 126.515 203.268 127.445 202.94 128.27C202.691 128.895 202.091 129.28 201.45 129.28Z" fill="black"/>
<path d="M200.01 115.2C199.817 115.2 199.617 115.16 199.417 115.088L186.24 109.871C185.415 109.543 185.015 108.613 185.343 107.788C185.672 106.962 186.593 106.562 187.426 106.89L200.602 112.107C201.427 112.436 201.828 113.365 201.499 114.19C201.251 114.816 200.65 115.2 200.01 115.2Z" fill="#648ECE"/>
<path opacity="0.5" d="M200.01 115.2C199.817 115.2 199.617 115.16 199.417 115.088L186.24 109.871C185.415 109.543 185.015 108.613 185.343 107.788C185.672 106.962 186.593 106.562 187.426 106.89L200.602 112.107C201.427 112.436 201.828 113.365 201.499 114.19C201.251 114.816 200.65 115.2 200.01 115.2Z" fill="white"/>
<path d="M172.454 129.031C172.262 129.031 172.062 128.991 171.861 128.919L147.936 119.439C147.111 119.111 146.71 118.181 147.039 117.356C147.367 116.53 148.296 116.13 149.121 116.458L173.047 125.938C173.872 126.267 174.272 127.196 173.944 128.022C173.696 128.655 173.095 129.031 172.454 129.031Z" fill="#648ECE"/>
<path opacity="0.3" d="M172.454 129.031C172.262 129.031 172.062 128.991 171.861 128.919L147.936 119.439C147.111 119.111 146.71 118.181 147.039 117.356C147.367 116.53 148.296 116.13 149.121 116.458L173.047 125.938C173.872 126.267 174.272 127.196 173.944 128.022C173.696 128.655 173.095 129.031 172.454 129.031Z" fill="black"/>
<path d="M259.075 56.8068C261.198 60.9497 263.144 65.1006 264.995 69.3477C266.829 73.5948 268.575 77.8979 270.073 82.4015L270.618 84.1083C270.706 84.4128 270.85 84.9096 270.93 85.2622C271.002 85.6308 271.082 86.0155 271.13 86.352C271.339 87.7464 271.379 89.0125 271.403 90.2465C271.443 92.7147 271.275 95.0706 271.066 97.4185C270.618 102.098 269.889 106.65 268.888 111.218L264.498 110.729C264.442 106.217 264.402 101.658 264.242 97.2102C264.162 94.9904 264.034 92.7788 263.809 90.6873C263.697 89.6535 263.529 88.6359 263.337 87.7864C263.289 87.5621 263.233 87.3858 263.177 87.2015C263.112 87.0011 263.088 86.953 263 86.7207L262.4 85.2061C260.725 81.1514 258.843 77.0645 256.921 72.9938L251.105 60.7894L259.075 56.8068Z" fill="#E4897B"/>
<path d="M264.562 109.375L262.512 113.213L269.064 115.04C269.064 115.04 270.313 111.955 268.824 109.519L264.562 109.375Z" fill="#E4897B"/>
<path d="M259.996 118.742L266.02 119.215L269.055 115.04L262.511 113.205L259.996 118.742Z" fill="#E4897B"/>
<path d="M231.505 29.1126C231.409 29.5774 231.089 29.9059 230.784 29.8418C230.48 29.7777 230.312 29.353 230.408 28.8882C230.504 28.4234 230.824 28.0949 231.129 28.159C231.425 28.2231 231.593 28.6478 231.505 29.1126Z" fill="#263238"/>
<path d="M231.129 29.9139C231.129 29.9139 229.527 32.3821 228.102 33.4398C228.766 34.3774 230.24 34.3053 230.24 34.3053L231.129 29.9139Z" fill="#DE5753"/>
<path d="M233.732 26.8769C233.66 26.8769 233.58 26.8448 233.524 26.7888C232.691 25.8832 231.698 26.0355 231.658 26.0355C231.514 26.0595 231.361 25.9554 231.337 25.8031C231.313 25.6509 231.418 25.5066 231.562 25.4826C231.618 25.4746 232.883 25.2742 233.933 26.4041C234.037 26.5163 234.029 26.6926 233.917 26.7968C233.869 26.8529 233.796 26.8769 233.732 26.8769Z" fill="#263238"/>
<path d="M244.754 35.6595C243.913 39.9627 243.064 47.8559 246.076 50.7327C246.076 50.7327 244.898 55.1 236.896 55.1C228.101 55.1 232.691 50.7327 232.691 50.7327C237.489 49.5868 237.369 46.0208 236.528 42.6793L244.754 35.6595Z" fill="#E4897B"/>
<path d="M247.286 53.4492C247.918 51.3417 248.623 48.9216 247.174 48.1684C245.58 47.335 236.873 46.4856 233.869 48.0482C230.865 49.6108 231.714 53.8899 231.714 53.8899L247.286 53.4492Z" fill="#263238"/>
<path d="M265.763 253.295C265.162 253.295 264.578 253.198 264.353 252.902C264.257 252.774 264.185 252.565 264.361 252.237C264.458 252.069 264.602 251.956 264.802 251.908C265.667 251.708 267.285 252.822 267.357 252.87C267.405 252.902 267.421 252.958 267.413 253.014C267.405 253.07 267.365 253.11 267.309 253.126C266.997 253.198 266.364 253.295 265.763 253.295ZM265.026 252.173C264.962 252.173 264.906 252.181 264.858 252.189C264.738 252.221 264.658 252.277 264.602 252.373C264.474 252.605 264.554 252.702 264.578 252.734C264.826 253.062 266.035 253.07 266.909 252.918C266.396 252.605 265.563 252.173 265.026 252.173Z" fill="#648ECE"/>
<path d="M267.262 253.126C267.238 253.126 267.214 253.118 267.198 253.11C266.589 252.782 265.412 251.492 265.532 250.834C265.556 250.714 265.644 250.506 265.973 250.466C266.181 250.442 266.389 250.498 266.565 250.642C267.246 251.203 267.39 252.902 267.398 252.974C267.398 253.022 267.374 253.078 267.334 253.102C267.318 253.118 267.294 253.126 267.262 253.126ZM266.077 250.746C266.053 250.746 266.037 250.746 266.013 250.746C265.828 250.77 265.812 250.85 265.812 250.891C265.74 251.283 266.485 252.253 267.094 252.71C267.022 252.213 266.838 251.227 266.397 250.866C266.293 250.786 266.189 250.746 266.077 250.746Z" fill="#648ECE"/>
<path d="M230.424 253.295C229.671 253.295 228.942 253.19 228.694 252.854C228.606 252.734 228.542 252.533 228.702 252.245C228.798 252.085 228.942 251.972 229.142 251.916C230.12 251.652 232.178 252.822 232.266 252.87C232.314 252.902 232.346 252.958 232.33 253.014C232.322 253.07 232.274 253.118 232.218 253.126C231.858 253.198 231.129 253.295 230.424 253.295ZM229.495 252.149C229.399 252.149 229.303 252.157 229.222 252.181C229.094 252.213 229.006 252.277 228.95 252.373C228.854 252.549 228.886 252.63 228.926 252.678C229.19 253.046 230.68 253.062 231.778 252.91C231.233 252.637 230.184 252.149 229.495 252.149Z" fill="#648ECE"/>
<path d="M232.203 253.126C232.187 253.126 232.163 253.126 232.147 253.118C231.434 252.798 230.032 251.524 230.136 250.859C230.16 250.698 230.273 250.506 230.657 250.466C230.945 250.442 231.202 250.514 231.426 250.706C232.171 251.323 232.331 252.91 232.339 252.974C232.347 253.022 232.323 253.07 232.283 253.102C232.259 253.118 232.235 253.126 232.203 253.126ZM230.769 250.746C230.745 250.746 230.713 250.746 230.689 250.746C230.441 250.77 230.425 250.875 230.417 250.907C230.353 251.307 231.306 252.309 232.035 252.742C231.963 252.277 231.746 251.331 231.258 250.923C231.106 250.802 230.945 250.746 230.769 250.746Z" fill="#648ECE"/>
<path d="M238.673 252.99H232.786L232.201 239.359H238.088L238.673 252.99Z" fill="#E4897B"/>
<path d="M274.007 252.99H268.12L265.164 239.359H271.051L274.007 252.99Z" fill="#E4897B"/>
<path d="M267.703 252.309H274.311C274.552 252.309 274.76 252.477 274.816 252.71L275.977 257.942C276.097 258.487 275.673 259 275.112 258.992C272.805 258.952 271.684 258.816 268.776 258.816C266.99 258.816 263.306 259 260.83 259C258.411 259 258.035 256.556 259.052 256.332C263.586 255.338 265.292 253.968 266.742 252.669C267.014 252.437 267.351 252.309 267.703 252.309Z" fill="#263238"/>
<path d="M232.826 252.309H239.25C239.491 252.309 239.699 252.477 239.755 252.71L240.917 257.942C241.037 258.487 240.628 259 240.067 258.992C237.753 258.952 234.396 258.816 231.489 258.816C228.085 258.816 225.137 259 221.148 259C218.729 259 218.064 256.556 219.073 256.332C223.679 255.322 227.436 255.218 231.417 252.766C231.841 252.501 232.322 252.309 232.826 252.309Z" fill="#263238"/>
<path d="M229.992 61.07C225.002 60.6773 220.204 60.0362 215.326 59.1227C212.899 58.6579 210.464 58.1371 208.036 57.48C205.601 56.8309 203.158 56.0856 200.699 55.0599C200.083 54.8035 199.458 54.523 198.841 54.2265C198.064 53.8419 197.415 53.4412 196.847 53.0646C195.693 52.3033 194.7 51.51 193.715 50.7247C191.752 49.1541 189.934 47.5194 188.132 45.8766C184.551 42.5591 181.155 39.1294 177.879 35.5234L180.827 32.2299L192.449 40.5878C194.363 41.9741 196.302 43.3204 198.208 44.5945C199.153 45.2275 200.131 45.8205 201.012 46.3254C201.46 46.5818 201.861 46.7661 202.165 46.8943C202.638 47.0786 203.126 47.2629 203.631 47.4312C207.7 48.7855 212.298 49.6589 216.871 50.3962C221.445 51.1174 226.171 51.7184 230.737 52.1912L229.992 61.07Z" fill="#E4897B"/>
<path d="M256.617 52.0629C262.136 53.329 267.711 69.4599 267.711 69.4599L256.361 77.6095C256.361 77.6095 253.189 70.093 250.073 63.522C246.789 56.6386 250.978 50.7648 256.617 52.0629Z" fill="#648ECE"/>
<path opacity="0.4" d="M256.617 52.0629C262.136 53.329 267.711 69.4599 267.711 69.4599L256.361 77.6095C256.361 77.6095 253.189 70.093 250.073 63.522C246.789 56.6386 250.978 50.7648 256.617 52.0629Z" fill="black"/>
<path d="M253.429 60.8776L251.178 65.918C253.509 70.9504 255.639 75.9347 256.208 77.2649C256.128 71.311 254.999 63.9226 253.429 60.8776Z" fill="#648ECE"/>
<path opacity="0.6" d="M253.429 60.8776L251.178 65.918C253.509 70.9504 255.639 75.9347 256.208 77.2649C256.128 71.311 254.999 63.9226 253.429 60.8776Z" fill="black"/>
<path d="M223.647 52.3674C223.647 52.3674 217.383 59.4432 223.302 103.252C232.786 103.252 250.16 103.252 254.773 103.252C254.99 98.4203 251.954 74.8369 256.616 52.0629C256.616 52.0629 251.217 50.9811 246.083 50.7327C242.062 50.5404 236.238 50.4122 232.706 50.7327C228.036 51.1574 223.647 52.3674 223.647 52.3674Z" fill="#648ECE"/>
<path opacity="0.4" d="M223.647 52.3674C223.647 52.3674 217.383 59.4432 223.302 103.252C232.786 103.252 250.16 103.252 254.773 103.252C254.99 98.4203 251.954 74.8369 256.616 52.0629C256.616 52.0629 251.217 50.9811 246.083 50.7327C242.062 50.5404 236.238 50.4122 232.706 50.7327C228.036 51.1574 223.647 52.3674 223.647 52.3674Z" fill="black"/>
<path d="M221.316 60.8776C221.108 62.5363 220.948 64.4996 220.844 66.8155C223.447 66.0061 226.683 64.7079 229.607 62.6966L221.316 60.8776Z" fill="#648ECE"/>
<path opacity="0.6" d="M221.316 60.8776C221.108 62.5363 220.948 64.4996 220.844 66.8155C223.447 66.0061 226.683 64.7079 229.607 62.6966L221.316 60.8776Z" fill="black"/>
<path d="M234.781 61.735C230.568 65.4693 214.484 65.0926 214.484 65.0926L213.955 49.5387C213.955 49.5387 223.07 50.8769 230.352 50.7247C239.339 50.5404 239.403 57.6402 234.781 61.735Z" fill="#648ECE"/>
<path opacity="0.4" d="M234.781 61.735C230.568 65.4693 214.484 65.0926 214.484 65.0926L213.955 49.5387C213.955 49.5387 223.07 50.8769 230.352 50.7247C239.339 50.5404 239.403 57.6402 234.781 61.735Z" fill="black"/>
<path d="M180.954 32.294L176.917 27.5741L172.607 32.3501C172.607 32.3501 175.259 36.8215 179.488 36.1163L180.954 32.294Z" fill="#E4897B"/>
<path d="M171.214 22.0769L169.66 28.2312L172.608 32.3581L176.917 27.5821L171.214 22.0769Z" fill="#E4897B"/>
<path d="M232.201 239.359L232.506 246.387H238.393L238.088 239.359H232.201Z" fill="#CE6F64"/>
<path d="M271.049 239.359H265.162L266.692 246.387H272.579L271.049 239.359Z" fill="#CE6F64"/>
<path d="M235.75 23.2629C230.471 20.8188 228.805 10.169 243.984 12.8054C243.984 12.8054 241.693 15.3457 246.347 16.9483C250.993 18.551 247.1 28.5116 235.75 23.2629Z" fill="#263238"/>
<path d="M247.214 31.2842C245.7 36.9256 245.107 40.3072 241.623 42.6552C236.384 46.181 229.864 42.1343 229.664 36.1563C229.479 30.7713 231.987 22.4455 238.034 21.3076C244.002 20.1857 248.727 25.6348 247.214 31.2842Z" fill="#E4897B"/>
<path d="M243.777 15.6742C247.373 17.6856 252.243 18.8876 251.755 21.7323C251.154 25.2182 254.702 23.0385 253.877 28.2312C253.341 31.6208 247.085 41.894 242.687 41.3891C236.071 40.6359 236.912 30.531 236.888 25.2182C236.88 22.0929 236.728 11.7317 243.777 15.6742Z" fill="#263238"/>
<path d="M236.095 20.1777C234.493 20.5544 232.37 29.7938 238.578 30.6432C245.723 31.6128 236.095 20.1777 236.095 20.1777Z" fill="#263238"/>
<path d="M236.262 23.4552C234.3 23.6315 229.87 21.2675 230.399 17.7096C230.399 17.7096 233.218 21.8685 236.262 23.4552Z" fill="#263238"/>
<path d="M239.171 31.3724C238.554 32.7747 237.393 33.8726 236.271 34.4656C234.581 35.347 233.628 34.0569 234.012 32.3661C234.357 30.8435 235.655 28.5437 237.393 28.3594C239.107 28.167 239.876 29.7697 239.171 31.3724Z" fill="#E4897B"/>
<path d="M247.982 24.8495C249.168 24.2405 251.875 22.8702 252.62 18.9838C252.612 18.9838 255.263 26.3721 247.982 24.8495Z" fill="#263238"/>
<path d="M254.671 24.7774C254.078 24.4328 252.732 23.6395 250.834 24.4008C250.834 24.4008 253.301 21.1954 254.671 24.7774Z" fill="#263238"/>
<path d="M234.461 103.244C234.461 103.244 241.141 148.231 244.802 165.091C248.815 183.546 263.938 245.033 263.938 245.033H274.719C274.719 245.033 264.747 185.045 262.456 166.766C259.973 146.933 254.766 103.252 254.766 103.252H234.461V103.244Z" fill="#648ECE"/>
<path opacity="0.5" d="M234.461 103.244C234.461 103.244 241.141 148.231 244.802 165.091C248.815 183.546 263.938 245.033 263.938 245.033H274.719C274.719 245.033 264.747 185.045 262.456 166.766C259.973 146.933 254.766 103.252 254.766 103.252H234.461V103.244Z" fill="white"/>
<path d="M262.224 241.058C262.176 241.058 263.338 245.201 263.338 245.201H275.465L275.24 241.507L262.224 241.058Z" fill="#648ECE"/>
<path opacity="0.1" d="M262.224 241.058C262.176 241.058 263.338 245.201 263.338 245.201H275.465L275.24 241.507L262.224 241.058Z" fill="black"/>
<path d="M238.682 119.279C246.403 120.794 245.586 149.602 244.657 164.418C242.43 153.945 239.17 133.791 236.943 119.487C237.456 119.231 238.033 119.151 238.682 119.279Z" fill="#648ECE"/>
<path opacity="0.4" d="M238.682 119.279C246.403 120.794 245.586 149.602 244.657 164.418C242.43 153.945 239.17 133.791 236.943 119.487C237.456 119.231 238.033 119.151 238.682 119.279Z" fill="white"/>
<path d="M223.296 103.244C223.296 103.244 222.487 147.262 223.128 165.212C223.793 183.883 230.313 245.025 230.313 245.025H240.285C240.285 245.025 240.654 184.973 241.094 166.638C241.575 146.645 243.994 103.244 243.994 103.244H223.296Z" fill="#648ECE"/>
<path opacity="0.5" d="M223.296 103.244C223.296 103.244 222.487 147.262 223.128 165.212C223.793 183.883 230.313 245.025 230.313 245.025H240.285C240.285 245.025 240.654 184.973 241.094 166.638C241.575 146.645 243.994 103.244 243.994 103.244H223.296Z" fill="white"/>
<path d="M232.386 237.861C232.338 237.861 232.29 237.821 232.29 237.773C230.536 220.848 226.387 179.908 225.866 165.22C225.329 150.227 225.818 116.586 225.978 106.634C225.978 106.578 226.026 106.538 226.082 106.538C226.138 106.538 226.179 106.586 226.179 106.642C226.018 116.594 225.53 150.227 226.066 165.22C226.587 179.9 230.736 220.84 232.49 237.765C232.498 237.821 232.458 237.869 232.402 237.877C232.394 237.861 232.394 237.861 232.386 237.861Z" fill="#648ECE"/>
<path opacity="0.4" d="M232.386 237.861C232.338 237.861 232.29 237.821 232.29 237.773C230.536 220.848 226.387 179.908 225.866 165.22C225.329 150.227 225.818 116.586 225.978 106.634C225.978 106.578 226.026 106.538 226.082 106.538C226.138 106.538 226.179 106.586 226.179 106.642C226.018 116.594 225.53 150.227 226.066 165.22C226.587 179.9 230.736 220.84 232.49 237.765C232.498 237.821 232.458 237.869 232.402 237.877C232.394 237.861 232.394 237.861 232.386 237.861Z" fill="white"/>
<path d="M228.397 241.058C228.349 241.058 228.958 245.201 228.958 245.201H241.085L241.413 241.507L228.397 241.058Z" fill="#648ECE"/>
<path opacity="0.1" d="M228.397 241.058C228.349 241.058 228.958 245.201 228.958 245.201H241.085L241.413 241.507L228.397 241.058Z" fill="black"/>
</g>
<defs>
<clipPath id="clip0_379_5426">
<rect width="276" height="259" fill="white"/>
</clipPath>
</defs>
</svg>
