<svg width="272" height="267" viewBox="0 0 272 267" fill="none" xmlns="http://www.w3.org/2000/svg">
<g clip-path="url(#clip0_509_5816)">
<path d="M228.286 47.2733L227.199 37.4022L215.318 31.235L212.542 18.7717L202.392 9.71138L195.392 20.2091L184.229 9.39197L177.297 15.8417L183.781 43.7721L201.459 57.6666L216.546 57.6236L228.286 47.2733Z" fill="#648ECE"/>
<path opacity="0.2" d="M228.286 47.2733L227.199 37.4022L215.318 31.235L212.542 18.7717L202.392 9.71138L195.392 20.2091L184.229 9.39197L177.297 15.8417L183.781 43.7721L201.459 57.6666L216.546 57.6236L228.286 47.2733Z" fill="black"/>
<path d="M246.646 21.0752L241.003 30.2523L224.32 26.4746L202.675 39.073L184.991 28.4586L187.969 13.5567L178.888 6.79984L181.221 1.84277C161.234 10.0308 147.185 29.7178 147.29 52.6543C147.388 74.5035 160.289 93.2937 178.851 101.955C178.882 108.429 178.912 115.739 178.912 115.739L226.788 115.53C226.788 115.53 227.046 107.79 227.12 100.886C244.669 91.7335 256.624 73.3425 256.532 52.1752C256.483 40.5964 252.823 29.8837 246.646 21.0752Z" fill="#648ECE"/>
<path d="M198.095 115.21C197.935 107.231 198.058 99.2458 198.113 91.2666C198.168 82.6178 198.23 73.9568 197.923 65.3141C197.806 61.9173 197.634 58.5143 197.266 55.1359C196.774 50.6702 195.964 45.6087 191.917 42.9305C190.131 41.745 187.803 41.2106 185.74 41.9662C183.714 42.7094 182.265 44.4232 181.338 46.3213C179.446 50.1972 179.115 54.8042 179.778 59.018C181.166 67.851 187.392 75.3819 196.019 77.9249C204.646 80.4679 214.428 78.0539 220.384 71.1926C223.215 67.9309 225.167 63.9075 225.965 59.663C226.745 55.5167 226.579 50.9098 224.707 47.0645C223 43.5632 219.34 40.2217 215.171 41.6345C211.419 42.906 209.884 47.1198 209.202 50.6763C208.398 54.841 208.189 59.1777 207.919 63.4038C207.612 68.238 207.434 73.0845 207.299 77.9249C207.023 87.882 206.967 97.8453 206.679 107.802C206.617 109.989 206.537 112.182 206.439 114.369C206.396 115.358 207.931 115.352 207.974 114.369C208.386 105.333 208.459 96.2912 208.631 87.2493C208.803 78.0969 208.994 68.9321 209.718 59.8042C210.025 55.9528 210.185 51.8803 211.444 48.1947C211.996 46.5731 212.837 44.8839 214.244 43.8335C215.68 42.7585 217.596 42.5497 219.229 43.3052C222.901 45.0006 224.455 49.54 224.786 53.2747C225.149 57.3472 224.338 61.5057 222.545 65.179C220.746 68.8646 217.989 72.0833 214.483 74.2332C210.836 76.4691 206.544 77.501 202.282 77.3782C198.021 77.2553 193.796 75.9531 190.284 73.5145C186.913 71.1742 184.31 67.7528 182.762 63.9628C181.221 60.1974 180.619 55.9835 181.258 51.9479C181.829 48.3237 183.689 42.6848 188.338 43.1762C193.293 43.6984 194.938 49.2144 195.528 53.3422C195.976 56.5057 196.166 59.7121 196.314 62.9062C196.676 70.8241 196.658 78.7603 196.627 86.6842C196.59 94.602 196.48 102.52 196.523 110.438C196.535 112.029 196.547 113.626 196.584 115.217C196.578 116.199 198.113 116.199 198.095 115.21Z" fill="#0C1727"/>
<path d="M192.383 143.454C192.383 143.454 194.348 144.719 195.52 146.212C196.128 146.986 197.08 147.416 198.069 147.41L207.703 147.361C208.784 147.355 209.797 146.82 210.392 145.923C211.092 144.867 212.351 143.62 213.671 143.344L192.383 143.454Z" fill="#455A64"/>
<path d="M181.816 116.672C181.816 116.869 184.131 131.906 185.016 137.662C185.378 140.02 186.845 142.115 189.025 143.098C189.817 143.454 190.738 143.694 191.77 143.687C195.896 143.669 212.843 143.577 212.843 143.577C212.843 143.577 218.351 143.546 219.573 139.173C220.863 134.566 223.257 116.464 223.257 116.464L181.816 116.672Z" fill="#0C1727"/>
<path d="M220.904 137.146L184.197 137.465C183.62 137.471 183.147 137.004 183.141 136.427V136.31C183.135 135.733 183.601 135.26 184.178 135.254L220.885 134.934C221.462 134.928 221.935 135.395 221.935 135.972V136.089C221.941 136.667 221.481 137.14 220.904 137.146Z" fill="#E0E0E0"/>
<path d="M220.904 137.146C220.886 137.115 221.23 137.183 221.611 136.814C221.795 136.63 221.93 136.316 221.881 135.936C221.869 135.573 221.586 135.137 221.107 135.039C219.112 135.026 216.152 135.106 212.529 135.143C205.253 135.217 195.238 135.327 184.179 135.438C183.891 135.438 183.608 135.592 183.455 135.837C183.381 135.96 183.332 136.095 183.32 136.237C183.314 136.39 183.314 136.55 183.357 136.679C183.442 136.949 183.664 137.17 183.94 137.25C184.185 137.318 184.572 137.269 184.898 137.281C186.249 137.269 187.575 137.262 188.883 137.25C191.492 137.232 194.01 137.213 196.411 137.195C201.206 137.17 205.523 137.146 209.158 137.121C212.769 137.115 215.698 137.109 217.755 137.103C218.749 137.109 219.535 137.115 220.094 137.115C220.346 137.121 220.542 137.127 220.702 137.127C220.837 137.133 220.904 137.14 220.904 137.146C220.904 137.152 220.837 137.158 220.696 137.164C220.536 137.17 220.34 137.176 220.088 137.189C219.529 137.201 218.749 137.219 217.755 137.244C215.698 137.275 212.769 137.318 209.164 137.373C205.529 137.416 201.213 137.465 196.417 137.52C194.016 137.545 191.499 137.569 188.889 137.594C187.581 137.606 186.255 137.619 184.904 137.631L184.394 137.637C184.235 137.637 184.032 137.649 183.835 137.588C183.455 137.477 183.135 137.164 183.019 136.783C182.957 136.581 182.957 136.396 182.964 136.206C182.976 136.003 183.049 135.807 183.154 135.641C183.369 135.297 183.768 135.082 184.173 135.082C195.232 135.008 205.247 134.94 212.529 134.885C216.164 134.885 219.081 134.836 221.138 134.897C221.678 135.026 221.979 135.518 221.985 135.923C222.022 136.329 221.862 136.673 221.66 136.857C221.236 137.238 220.886 137.14 220.904 137.146Z" fill="#0C1727"/>
<path d="M221.66 132.397L183.4 132.729C182.822 132.735 182.35 132.268 182.35 131.691V131.574C182.344 130.997 182.81 130.524 183.387 130.518L221.648 130.186C222.225 130.18 222.698 130.647 222.698 131.224V131.341C222.698 131.918 222.237 132.391 221.66 132.397Z" fill="#E0E0E0"/>
<path d="M221.66 132.397C221.642 132.367 221.998 132.434 222.385 132.041C222.569 131.845 222.692 131.513 222.63 131.12C222.587 130.739 222.256 130.315 221.752 130.272C219.621 130.303 216.582 130.346 212.83 130.401C205.272 130.481 194.87 130.592 183.375 130.708C183.074 130.708 182.786 130.874 182.638 131.132C182.559 131.261 182.522 131.408 182.516 131.556C182.509 131.74 182.522 131.869 182.577 132.01C182.681 132.287 182.939 132.496 183.234 132.545C183.523 132.576 183.922 132.545 184.253 132.551C185.653 132.539 187.035 132.526 188.392 132.52C191.106 132.502 193.722 132.483 196.215 132.465C201.194 132.434 205.677 132.41 209.459 132.391C213.211 132.385 216.257 132.373 218.387 132.373C219.425 132.379 220.235 132.385 220.813 132.385C221.077 132.391 221.279 132.391 221.445 132.397C221.586 132.385 221.66 132.391 221.66 132.397C221.66 132.404 221.586 132.41 221.445 132.416C221.285 132.422 221.077 132.428 220.813 132.44C220.235 132.453 219.419 132.471 218.387 132.496C216.257 132.526 213.211 132.576 209.459 132.631C205.683 132.674 201.194 132.729 196.221 132.784C193.728 132.809 191.112 132.834 188.398 132.864C187.041 132.877 185.659 132.889 184.259 132.901C183.897 132.895 183.59 132.926 183.173 132.889C182.761 132.821 182.399 132.526 182.252 132.139C182.172 131.949 182.153 131.722 182.166 131.544C182.172 131.335 182.227 131.126 182.338 130.948C182.546 130.585 182.958 130.346 183.381 130.346C194.87 130.266 205.278 130.192 212.836 130.143C216.607 130.131 219.646 130.112 221.771 130.131C222.348 130.198 222.71 130.684 222.741 131.101C222.79 131.519 222.649 131.888 222.44 132.084C222.004 132.496 221.635 132.391 221.66 132.397Z" fill="#0C1727"/>
<path d="M222.127 127.655L182.872 127.993C182.295 127.999 181.822 127.533 181.822 126.955V126.838C181.816 126.261 182.283 125.788 182.86 125.782L222.115 125.444C222.692 125.438 223.165 125.905 223.165 126.482V126.599C223.171 127.176 222.704 127.649 222.127 127.655Z" fill="#E0E0E0"/>
<path d="M222.127 127.655C222.108 127.625 222.477 127.698 222.87 127.287C223.06 127.084 223.164 126.74 223.097 126.335C223.042 125.948 222.673 125.53 222.151 125.524C219.972 125.555 216.852 125.604 213.015 125.659C205.278 125.739 194.624 125.849 182.86 125.972C182.553 125.972 182.258 126.15 182.11 126.415C182.037 126.55 182 126.697 182 126.851C182 127.041 182.012 127.164 182.08 127.311C182.202 127.588 182.479 127.784 182.78 127.815C183.105 127.821 183.492 127.815 183.842 127.809C185.273 127.797 186.691 127.784 188.079 127.772C190.854 127.754 193.531 127.729 196.086 127.711C201.182 127.68 205.775 127.655 209.644 127.631C213.487 127.619 216.601 127.612 218.786 127.606C219.849 127.612 220.678 127.612 221.273 127.619C221.543 127.625 221.752 127.625 221.918 127.631C222.053 127.643 222.127 127.649 222.127 127.655C222.127 127.662 222.053 127.668 221.906 127.674C221.74 127.68 221.525 127.686 221.261 127.698C220.672 127.711 219.836 127.729 218.774 127.754C216.594 127.784 213.475 127.833 209.637 127.889C205.769 127.932 201.176 127.987 196.08 128.042C193.525 128.067 190.848 128.098 188.073 128.122C186.685 128.134 185.273 128.147 183.836 128.159C183.467 128.159 183.136 128.171 182.737 128.159C182.313 128.116 181.92 127.846 181.748 127.453C181.656 127.268 181.631 127.023 181.638 126.845C181.638 126.636 181.687 126.415 181.791 126.23C181.994 125.849 182.417 125.604 182.847 125.604C194.612 125.524 205.265 125.45 213.002 125.395C216.846 125.389 219.959 125.383 222.145 125.376C222.741 125.395 223.14 125.88 223.189 126.31C223.257 126.734 223.121 127.121 222.913 127.324C222.489 127.754 222.108 127.643 222.127 127.655Z" fill="#0C1727"/>
<path d="M222.902 122.907L182.056 123.263C181.479 123.269 181.006 122.803 181 122.225V122.109C180.994 121.531 181.461 121.058 182.038 121.052L222.883 120.696C223.46 120.69 223.933 121.156 223.939 121.734V121.851C223.939 122.428 223.479 122.901 222.902 122.907Z" fill="#E0E0E0"/>
<path d="M222.902 122.907C222.877 122.876 223.27 122.956 223.663 122.514C223.853 122.299 223.945 121.93 223.853 121.519C223.767 121.12 223.35 120.726 222.797 120.776C220.538 120.806 217.302 120.855 213.317 120.917C205.291 121.003 194.245 121.113 182.038 121.242C181.719 121.242 181.412 121.433 181.27 121.715C181.135 121.986 181.141 122.379 181.289 122.643C181.442 122.919 181.749 123.098 182.062 123.091C182.437 123.091 182.812 123.085 183.18 123.079C184.666 123.067 186.133 123.055 187.57 123.042C190.45 123.024 193.225 122.999 195.878 122.981C201.165 122.95 205.93 122.919 209.939 122.895C213.924 122.883 217.16 122.876 219.42 122.87C220.519 122.876 221.385 122.876 221.999 122.883C222.275 122.889 222.502 122.889 222.668 122.895C222.822 122.895 222.902 122.901 222.902 122.907C222.902 122.913 222.822 122.919 222.674 122.926C222.502 122.932 222.281 122.938 222.005 122.95C221.391 122.962 220.531 122.981 219.426 123.005C217.167 123.036 213.931 123.085 209.946 123.147C205.936 123.19 201.171 123.245 195.884 123.306C193.238 123.331 190.456 123.362 187.576 123.386C186.133 123.399 184.672 123.411 183.186 123.429C182.812 123.435 182.443 123.435 182.069 123.442C181.633 123.454 181.197 123.202 180.982 122.815C180.877 122.625 180.822 122.391 180.828 122.188C180.816 121.992 180.859 121.746 180.963 121.556C181.16 121.156 181.596 120.886 182.044 120.886C194.251 120.8 205.297 120.726 213.323 120.665C217.308 120.653 220.544 120.647 222.803 120.64C223.411 120.597 223.884 121.058 223.964 121.5C224.05 121.943 223.939 122.342 223.724 122.563C223.522 122.797 223.288 122.87 223.141 122.901C222.981 122.926 222.902 122.907 222.902 122.907Z" fill="#0C1727"/>
<path d="M176.438 103.705C176.438 104.099 177.352 113.312 177.825 118.042C177.997 119.781 178.955 121.341 180.429 122.281L182.584 123.663L223.325 123.454L225.437 122.072C226.917 121.107 227.863 119.51 227.998 117.747L229.134 103.441L176.438 103.705Z" fill="#648ECE"/>
<g opacity="0.3">
<path d="M185.562 137.361C189.492 138.227 193.404 138.282 197.708 138.245C201.183 138.214 204.597 138.288 208.374 138.19C211.137 138.116 213.685 137.969 216.442 137.834C217.836 137.766 219.365 137.404 219.647 137.121L185.562 137.361Z" fill="black"/>
</g>
<g opacity="0.3">
<path d="M184.082 132.612C188.319 133.479 192.537 133.534 197.179 133.491C200.931 133.454 204.603 133.534 208.674 133.436C211.658 133.362 214.397 133.208 217.375 133.073C218.879 133.006 220.525 132.643 220.826 132.361L184.082 132.612Z" fill="black"/>
</g>
<g opacity="0.3">
<path d="M184.057 127.901C188.293 128.767 192.512 128.822 197.154 128.779C200.906 128.743 204.578 128.822 208.649 128.724C211.633 128.65 214.371 128.497 217.349 128.362C218.854 128.294 220.499 127.932 220.8 127.649L184.057 127.901Z" fill="black"/>
</g>
<g opacity="0.3">
<path d="M184.033 123.196C188.27 124.062 192.488 124.117 197.13 124.074C200.882 124.037 204.554 124.117 208.625 124.019C211.609 123.945 214.348 123.792 217.326 123.657C218.83 123.589 220.476 123.227 220.777 122.944L184.033 123.196Z" fill="black"/>
</g>
<path d="M227.014 119.707C227.014 119.805 216.115 119.94 202.68 120.008C189.239 120.075 178.34 120.051 178.34 119.953C178.34 119.854 189.233 119.719 202.68 119.652C216.115 119.59 227.014 119.615 227.014 119.707Z" fill="#0C1727"/>
<path d="M228.851 103.165C228.857 103.275 217.024 103.472 202.423 103.601C187.821 103.736 175.983 103.755 175.977 103.644C175.97 103.533 187.803 103.337 202.404 103.208C217.006 103.079 228.845 103.054 228.851 103.165Z" fill="#0C1727"/>
<g opacity="0.3">
<path d="M176.438 103.705C176.438 104.099 177.352 113.312 177.825 118.042C177.997 119.781 178.955 121.341 180.429 122.281L182.584 123.663L223.325 123.454L225.437 122.072C226.917 121.107 227.863 119.51 227.998 117.747L229.134 103.441L176.438 103.705Z" fill="black"/>
</g>
<g opacity="0.2">
<path d="M252.153 49.8471C250.814 45.7745 244.662 42.9981 242.298 48.7905C241.96 49.6136 241.788 50.492 241.727 51.3827C241.26 57.9246 241.414 65.2404 237.416 70.5599C235.144 73.5882 231.792 75.5722 228.66 77.7037C225.529 79.8352 222.409 82.3475 221.028 85.8734C219.855 88.8709 219.775 94.0676 224.282 94.8845C225.725 95.1487 227.223 94.8538 228.519 94.1659C234.714 90.898 238.442 86.936 242.807 80.9531C246.983 75.2344 249.157 69.9948 251.134 63.5082C252.282 59.7182 253.485 53.8889 252.153 49.8471Z" fill="white"/>
</g>
<g opacity="0.2">
<path d="M152.625 53.7047C152.404 53.7293 152.153 53.0659 151.888 51.8189C151.821 51.5057 151.753 51.1617 151.686 50.7808C151.631 50.4 151.6 49.9823 151.563 49.5339C151.502 48.6371 151.385 47.6113 151.44 46.481C151.453 45.9098 151.471 45.3201 151.483 44.6997C151.508 44.0793 151.6 43.4405 151.667 42.7771C151.772 41.438 152.067 40.0375 152.355 38.5571C153.037 35.6209 154.068 32.4514 155.567 29.3064C157.102 26.1736 158.938 23.391 160.81 21.0323C161.793 19.8836 162.702 18.7841 163.684 17.8688C164.163 17.402 164.605 16.9352 165.078 16.5298C165.551 16.1305 166.011 15.7497 166.447 15.3872C167.301 14.6378 168.173 14.0912 168.916 13.5813C169.29 13.3356 169.634 13.0961 169.966 12.9056C170.303 12.7214 170.616 12.5616 170.905 12.4204C172.041 11.8553 172.716 11.6403 172.839 11.8245C172.962 12.0088 172.514 12.5801 171.636 13.4339C171.415 13.6489 171.169 13.8762 170.893 14.128C170.629 14.3921 170.346 14.6808 170.039 14.9818C169.431 15.6022 168.701 16.2411 167.988 17.058C167.62 17.4512 167.233 17.8627 166.834 18.2865C166.435 18.7165 166.06 19.2018 165.649 19.6748C164.808 20.6146 164.028 21.7141 163.168 22.8321C161.535 25.1417 159.902 27.783 158.465 30.7069C157.071 33.6492 156.021 36.573 155.229 39.2881C154.885 40.6579 154.51 41.9539 154.302 43.1947C154.185 43.8151 154.038 44.411 153.952 44.9884C153.866 45.5658 153.786 46.1248 153.706 46.6592C153.51 47.7218 153.467 48.6985 153.362 49.5585C153.313 49.9885 153.264 50.3877 153.221 50.7563C153.196 51.1248 153.172 51.4627 153.141 51.7698C153.018 52.986 152.846 53.6863 152.625 53.7047Z" fill="white"/>
</g>
<path d="M50.0071 34.7548L44.8308 34.4538C42.651 36.487 39.9002 37.9551 36.7625 38.5816C27.7485 40.3876 18.9801 34.5398 17.1749 25.5225C15.3696 16.499 21.2152 7.7274 30.2292 5.92148C39.2493 4.11556 48.0238 9.9633 49.8229 18.9806C50.5782 22.746 49.9948 26.4684 48.4045 29.6626L48.4106 29.6564L50.0071 34.7548Z" fill="white"/>
<path d="M50.0076 34.7548C50.0076 34.7548 49.9769 34.6504 49.9155 34.4292C49.8479 34.2081 49.7497 33.8825 49.6208 33.4587C49.3567 32.5865 48.9637 31.3088 48.4541 29.638L48.4295 29.5704L48.3804 29.6257L48.3743 29.6319L48.4418 29.681C49.3997 27.7707 50.3085 25.0249 50.2041 21.6833C50.1795 20.8541 50.0874 19.988 49.9155 19.1096C49.7067 18.2374 49.5225 17.3283 49.1602 16.4376C48.5032 14.6439 47.4901 12.8442 46.0778 11.2348C44.6717 9.62545 42.8787 8.21265 40.7849 7.19298C38.691 6.17331 36.2963 5.55905 33.7972 5.50377C31.2981 5.4362 28.7192 5.99517 26.3367 7.11927C23.9604 8.24336 21.7745 9.951 20.1412 12.1623C19.9385 12.4388 19.7298 12.7152 19.5333 12.9977C19.3552 13.2926 19.1833 13.5874 19.0052 13.8761L18.7412 14.3184L18.5263 14.7791C18.3789 15.0862 18.2315 15.3933 18.0903 15.7005C17.9552 16.0137 17.857 16.3332 17.7342 16.6464C17.6236 16.9658 17.4885 17.273 17.421 17.6047C17.2613 18.2558 17.0587 18.8946 16.9912 19.5519C16.5614 22.1625 16.7701 24.8099 17.5008 27.2117C18.2499 29.6073 19.521 31.7511 21.099 33.4833C22.671 35.2155 24.5438 36.5423 26.4902 37.4391C28.4367 38.3421 30.4569 38.8089 32.3665 38.9379C33.3244 39.0239 34.2516 38.9563 35.1481 38.901C36.0323 38.7659 36.898 38.6676 37.7024 38.4403C40.9384 37.5927 43.3147 35.9464 44.862 34.4907L44.8313 34.5029C46.5199 34.5889 47.8155 34.6565 48.6936 34.7056C49.1234 34.7241 49.4488 34.7425 49.676 34.7548C49.8971 34.7548 50.0076 34.7548 50.0076 34.7548C50.0076 34.7548 49.8909 34.7425 49.6637 34.7302C49.4366 34.7118 49.105 34.6934 48.669 34.6626C47.7909 34.6074 46.5076 34.5214 44.8375 34.4108H44.819L44.8068 34.4231C43.2533 35.8605 40.8892 37.4821 37.6717 38.3052C36.8735 38.5263 36.02 38.6185 35.1358 38.7536C34.2454 38.8028 33.3244 38.8703 32.3788 38.7782C30.4876 38.6492 28.4858 38.1762 26.5639 37.2794C24.642 36.3887 22.7876 35.0742 21.2341 33.3543C19.6806 31.6405 18.428 29.5213 17.685 27.1503C16.9605 24.7792 16.7578 22.1625 17.1815 19.5764C17.2552 18.9253 17.4517 18.2926 17.6113 17.6538C17.6789 17.3283 17.814 17.0273 17.9245 16.7079C18.0412 16.3946 18.1456 16.0752 18.2745 15.7742C18.4157 15.4732 18.5631 15.1722 18.7043 14.8651L18.9254 14.4105L19.1833 13.9744C19.3552 13.6857 19.5333 13.397 19.7052 13.1022C19.9017 12.8319 20.1104 12.5616 20.3069 12.2852C21.9157 10.0984 24.0771 8.41535 26.4227 7.30355C28.7744 6.19788 31.3226 5.6389 33.791 5.70033C36.2595 5.74947 38.6296 6.35144 40.6989 7.35883C42.7743 8.36007 44.555 9.75444 45.9489 11.3454C47.3488 12.9363 48.3559 14.7115 49.0129 16.4867C49.3751 17.3651 49.5594 18.2681 49.7743 19.1342C49.9462 20.0064 50.0383 20.8602 50.069 21.6833C50.1918 25.0003 49.3015 27.7277 48.362 29.638L48.2269 29.9206L48.4357 29.6871L48.4418 29.681L48.3681 29.6626C48.8962 31.3088 49.3015 32.5742 49.5778 33.4341C49.7129 33.858 49.8234 34.1835 49.8909 34.4108C49.9646 34.6381 50.0076 34.7548 50.0076 34.7548Z" fill="#0C1727"/>
<path d="M40.0224 18.0792L37.6719 15.8452L27.6566 26.3908L30.0071 28.6248L40.0224 18.0792Z" fill="#648ECE"/>
<path d="M29.6863 16.0543L27.4531 18.4056L37.9948 28.4247L40.2279 26.0733L29.6863 16.0543Z" fill="#648ECE"/>
<path d="M92.8038 22.8443C93.4116 21.1981 92.902 19.2386 91.6862 17.9733C90.4704 16.7079 89.4143 16.7079 89.5924 16.542C90.1573 15.031 88.9231 13.3172 87.3941 12.8135C85.8591 12.3098 84.1889 12.6968 82.6538 13.1882C82.0705 10.553 79.7925 8.37239 77.1337 7.90555C74.4749 7.43872 71.589 8.71023 70.146 10.9953C67.9171 9.50877 64.7487 9.60091 62.6057 11.2103C60.4628 12.8196 59.4926 15.8356 60.297 18.391C58.5347 19.3062 57.5154 21.4623 57.9268 23.4033C58.3382 25.3444 60.1496 26.8984 62.1268 27.0152C62.0838 29.2019 62.4584 31.3948 63.2136 33.4464L89.2608 35.5595C89.2608 35.5595 89.9792 31.0693 89.9792 29.4783C89.9792 27.5127 90.1266 25.6576 90.1266 25.6576C90.4336 25.6822 92.1897 24.4905 92.8038 22.8443Z" fill="#0C1727"/>
<path d="M78.4727 14.0482L77.7789 14.0113C70.7973 13.6612 64.7184 18.7411 63.8097 25.6761C62.9684 32.1258 62.1149 39.2635 61.986 42.7402C61.7158 49.9393 68.857 51.4136 68.857 51.4136L67.8193 60.0255L85.3007 60.351L88.4016 29.0852C89.4147 21.6466 85.9332 14.859 78.4727 14.0482Z" fill="#FFBF9D"/>
<path d="M68.7955 51.4013C68.7955 51.4013 73.3762 51.905 78.356 49.1101C78.356 49.1101 75.8814 54.1777 68.7402 53.1704L68.7955 51.4013Z" fill="#FF9A6C"/>
<path d="M66.7929 32.5743C66.7438 33.1148 67.1675 33.6001 67.7324 33.6615C68.2973 33.7168 68.7885 33.3298 68.8377 32.7893C68.8868 32.2487 68.4631 31.7635 67.8982 31.702C67.3333 31.6467 66.8359 32.0337 66.7929 32.5743Z" fill="#0C1727"/>
<path d="M65.1788 29.2756C65.3016 29.4169 66.106 28.8763 67.2112 28.9378C68.3165 28.9808 69.0963 29.5889 69.2252 29.4599C69.2866 29.4046 69.17 29.1528 68.8323 28.8825C68.4945 28.6061 67.9173 28.3297 67.2296 28.2989C66.5419 28.2682 65.9524 28.4955 65.6024 28.7351C65.2463 28.9746 65.1174 29.2142 65.1788 29.2756Z" fill="#0C1727"/>
<path d="M77.3359 33.084C77.2868 33.6246 77.7105 34.1099 78.2754 34.1713C78.8403 34.2327 79.3315 33.8396 79.3806 33.299C79.4236 32.7585 79.0061 32.2732 78.4412 32.2118C77.8763 32.1565 77.3789 32.5435 77.3359 33.084Z" fill="#0C1727"/>
<path d="M76.0343 30.0189C76.1571 30.1602 76.9614 29.6196 78.0667 29.6811C79.172 29.7241 79.9518 30.3322 80.0807 30.2032C80.1421 30.1479 80.0255 29.896 79.6816 29.6258C79.3439 29.3555 78.7667 29.0729 78.079 29.0422C77.3913 29.0115 76.8018 29.2388 76.4518 29.4784C76.1018 29.7179 75.9729 29.9575 76.0343 30.0189Z" fill="#0C1727"/>
<path d="M71.6149 38.0166C71.621 37.9551 70.9394 37.8016 69.8342 37.605C69.5517 37.562 69.2877 37.4944 69.2508 37.2979C69.1956 37.089 69.3307 36.7942 69.478 36.4686C69.7789 35.7991 70.0921 35.0988 70.4175 34.3617C71.7315 31.358 72.6894 28.8825 72.5728 28.8334C72.4499 28.7842 71.2894 31.1737 69.9815 34.1774C69.6622 34.9207 69.3614 35.6271 69.0728 36.3028C68.95 36.616 68.7473 36.9723 68.8701 37.4023C68.9377 37.6173 69.1342 37.7831 69.3122 37.8384C69.4903 37.8998 69.65 37.9121 69.7912 37.9306C70.9149 38.0411 71.6087 38.0841 71.6149 38.0166Z" fill="#0C1727"/>
<path d="M75.4586 26.3334C75.5875 26.6221 76.5516 26.3641 77.7182 26.3825C78.8849 26.3764 79.855 26.6467 79.9779 26.358C80.0331 26.2228 79.8366 25.9587 79.4252 25.713C79.02 25.4673 78.3937 25.2646 77.6937 25.2584C76.9937 25.2523 76.3735 25.455 75.9805 25.6946C75.5875 25.9403 75.3972 26.1983 75.4586 26.3334Z" fill="#0C1727"/>
<path d="M65.35 25.67C65.571 25.9341 66.4982 25.7191 67.5912 25.7621C68.6903 25.7744 69.6052 26.0324 69.8324 25.7806C69.9306 25.6577 69.8017 25.3997 69.4026 25.1417C69.0157 24.8837 68.3526 24.6565 67.6035 24.638C66.8482 24.6196 66.1851 24.8162 65.7921 25.0557C65.393 25.2953 65.2579 25.5471 65.35 25.67Z" fill="#0C1727"/>
<path d="M87.3523 34.8777C87.4505 33.772 88.4514 32.9428 89.5505 33.1025C90.8829 33.2991 92.3382 34.1345 92.111 36.8986C91.7119 41.8066 86.8672 40.3938 86.8672 40.2525C86.8733 40.1603 87.1681 36.9355 87.3523 34.8777Z" fill="#FFBF9D"/>
<path d="M88.0876 38.4957C88.1121 38.4834 88.1674 38.5632 88.3086 38.6431C88.4437 38.7168 88.6832 38.7844 88.9472 38.7106C89.4814 38.5632 89.9849 37.777 90.0832 36.8924C90.1323 36.444 90.0709 36.014 89.942 35.6455C89.8192 35.2769 89.6104 35.0067 89.3525 34.9391C89.0946 34.8592 88.8981 35.0005 88.8306 35.1295C88.7507 35.2585 88.7753 35.3629 88.7507 35.3691C88.7385 35.3814 88.6525 35.2769 88.7078 35.0804C88.7385 34.9821 88.806 34.8715 88.9288 34.7855C89.0516 34.6995 89.2297 34.6627 89.4139 34.6995C89.7885 34.7548 90.1016 35.1357 90.2428 35.5349C90.4086 35.9403 90.4823 36.4256 90.427 36.9293C90.3165 37.9182 89.7332 38.8028 89.0086 38.9502C88.6586 39.0116 88.3762 38.8826 88.235 38.7536C88.0876 38.6124 88.0753 38.5018 88.0876 38.4957Z" fill="#FF9A6C"/>
<path d="M85.3616 16.0138L76.059 12.1194L71.6748 13.999L63.2503 19.3185L62.1328 21.278C62.1942 21.407 62.2556 21.5298 62.3232 21.6465C63.4284 23.606 65.7372 24.8468 67.9845 24.6257C70.367 24.3923 72.5099 22.5434 73.0871 20.2153C75.1687 21.235 77.9871 20.2399 78.9757 18.1453C78.9757 18.1453 79.823 22.2301 83.7283 20.0986C82.3774 21.6711 84.373 25.2461 84.4958 26.6405C84.6984 28.8457 84.1151 30.6823 84.5756 32.8445C84.809 33.9624 85.3186 36.487 86.4177 36.7819C87.2896 37.0153 88.1616 35.2278 88.6221 34.4477C89.0826 33.6676 89.1686 32.7278 89.187 31.8248C89.2116 30.9219 89.1809 30.0005 89.451 29.1344L89.9852 28.8641V20.6269L85.3616 16.0138Z" fill="#0C1727"/>
<path d="M75.7516 40.0682C75.6902 40.2401 74.8796 40.0682 73.9832 40.3937C73.0744 40.6886 72.5402 41.3151 72.3867 41.223C72.3191 41.18 72.3621 40.9404 72.5832 40.6333C72.8042 40.3261 73.2279 39.9822 73.7744 39.7917C74.327 39.6013 74.8735 39.6197 75.2358 39.7242C75.5981 39.8286 75.7823 39.9944 75.7516 40.0682Z" fill="#0C1727"/>
<path d="M66.5418 24.1711C66.5418 24.1834 66.4435 24.1957 66.2532 24.2018C66.0628 24.208 65.7804 24.1957 65.4304 24.1158C64.7365 23.95 63.7234 23.4463 62.9804 22.3591C62.6058 21.8247 62.3172 21.1428 62.2313 20.3689C62.1514 19.601 62.2865 18.7595 62.6304 17.961C63.312 16.3762 64.9023 14.9757 66.8733 14.5887C68.5803 14.2263 70.2873 14.5334 71.6751 15.1108L71.4724 15.2214C71.7733 13.827 72.7742 12.7889 73.8242 12.3159C74.8926 11.8245 75.9917 11.9228 76.7715 12.1992C77.5697 12.4818 78.0917 12.9241 78.3987 13.2558C78.5522 13.4216 78.6566 13.5629 78.718 13.6612C78.7794 13.7594 78.8101 13.8147 78.8039 13.8209C78.7855 13.8332 78.6504 13.6304 78.3311 13.3295C78.0118 13.0285 77.4899 12.6231 76.7162 12.3835C75.961 12.1439 74.9294 12.0764 73.9347 12.5555C72.9584 13.0162 72.0373 14.0051 71.7733 15.2889L71.7365 15.4671L71.5707 15.3995C70.2259 14.8467 68.5803 14.5641 66.9532 14.9081C65.0742 15.2767 63.576 16.5912 62.9128 18.0838C62.5813 18.8332 62.4462 19.6195 62.5076 20.3443C62.5751 21.0691 62.833 21.7141 63.1769 22.2301C63.8646 23.2866 64.8102 23.7964 65.4733 23.993C66.1365 24.1834 66.5418 24.1343 66.5418 24.1711Z" fill="#455A64"/>
<path d="M69.2377 237.516L69.9623 250.704C69.9623 250.704 56.8036 255.87 56.6992 258.314L82.3104 257.829L82.028 237.239L69.2377 237.516Z" fill="#0C1727"/>
<path d="M77.8594 249.445C78.3568 249.574 78.7129 250.12 78.6024 250.624C78.498 251.128 77.9392 251.49 77.4418 251.373C76.9445 251.257 76.4962 250.606 76.6559 250.12C76.8155 249.635 77.4971 249.242 77.9515 249.475" fill="#E0E0E0"/>
<path d="M82.3109 257.829L82.2004 255.753L57.6883 256.994C57.6883 256.994 56.5585 257.51 56.6997 258.315L82.3109 257.829Z" fill="#455A64"/>
<path d="M69.5458 250.581C69.552 250.704 70.1783 250.753 70.8046 251.14C71.437 251.515 71.7625 252.049 71.8791 252C71.9958 251.975 71.7932 251.232 71.0318 250.771C70.2704 250.298 69.5151 250.464 69.5458 250.581Z" fill="white"/>
<path d="M66.8797 251.742C66.8551 251.865 67.4016 252.067 67.8315 252.59C68.2797 253.099 68.3964 253.671 68.5253 253.658C68.642 253.677 68.7157 252.94 68.163 252.307C67.6165 251.662 66.8797 251.619 66.8797 251.742Z" fill="white"/>
<path d="M65.4124 254.985C65.5291 255.01 65.6887 254.383 65.3571 253.701C65.0256 253.02 64.4361 252.762 64.3808 252.866C64.3133 252.97 64.7001 253.333 64.9642 253.892C65.2405 254.451 65.2896 254.979 65.4124 254.985Z" fill="white"/>
<path d="M69.7115 247.553C69.7668 247.663 70.3378 247.485 71.0439 247.516C71.7501 247.534 72.3088 247.762 72.3703 247.657C72.4439 247.565 71.8974 247.11 71.0624 247.086C70.2273 247.049 69.6501 247.461 69.7115 247.553Z" fill="white"/>
<path d="M100.248 236.213L101.635 252.129L99.1057 265.034C98.9215 265.962 99.5662 266.853 100.506 266.975C101.034 267.043 101.556 266.853 101.912 266.46C104.196 263.972 112.547 254.77 112.381 253.609C112.191 252.264 112.031 236.723 112.031 236.723L100.248 236.213Z" fill="#0C1727"/>
<path d="M100.5 266.982L112.308 252.54L112.351 253.216C112.388 253.8 112.222 254.377 111.872 254.85C110.939 256.103 108.274 259.512 101.961 266.466C101.587 266.865 101.04 267.061 100.5 266.982Z" fill="#455A64"/>
<g opacity="0.6">
<path d="M108.709 247.608C108.328 247.909 108.236 248.523 108.518 248.916C108.807 249.309 109.427 249.408 109.814 249.113C110.201 248.818 110.336 248.087 110.004 247.725C109.679 247.368 108.942 247.288 108.635 247.669" fill="white"/>
</g>
<path d="M103.699 259.776C103.613 259.825 103.202 259.015 102.219 258.628C101.255 258.21 100.389 258.493 100.359 258.394C100.34 258.357 100.537 258.216 100.905 258.142C101.274 258.063 101.814 258.081 102.348 258.302C102.882 258.523 103.281 258.898 103.484 259.211C103.699 259.531 103.736 259.764 103.699 259.776Z" fill="white"/>
<path d="M102.697 261.988C102.624 262.061 102.083 261.576 101.242 261.392C100.407 261.189 99.7071 261.386 99.6703 261.294C99.6211 261.214 100.364 260.827 101.316 261.054C102.28 261.263 102.777 261.939 102.697 261.988Z" fill="white"/>
<path d="M105.632 256.908C105.565 256.988 104.73 256.238 103.446 255.839C102.169 255.421 101.058 255.544 101.046 255.44C101.015 255.354 102.181 255.059 103.551 255.507C104.932 255.931 105.706 256.859 105.632 256.908Z" fill="white"/>
<path d="M105.62 252.031C105.584 252.129 104.681 251.816 103.533 251.852C102.384 251.871 101.494 252.221 101.451 252.123C101.402 252.049 102.286 251.521 103.527 251.502C104.755 251.465 105.663 251.957 105.62 252.031Z" fill="white"/>
<path d="M105.333 247.35C105.29 247.448 104.369 246.969 103.165 247.104C101.956 247.209 101.145 247.854 101.084 247.774C101.053 247.743 101.219 247.528 101.569 247.295C101.919 247.061 102.478 246.822 103.128 246.76C103.779 246.699 104.369 246.822 104.762 246.981C105.155 247.135 105.351 247.313 105.333 247.35Z" fill="white"/>
<path d="M103.127 246.207C103.109 246.207 103.06 245.998 103.066 245.605C103.078 245.218 103.152 244.641 103.447 243.996C103.6 243.689 103.754 243.296 104.184 243.056C104.398 242.933 104.73 242.958 104.933 243.154C105.135 243.345 105.209 243.603 105.234 243.861C105.283 244.874 104.478 245.906 103.348 246.127C102.213 246.324 101.138 245.74 100.628 244.893C100.518 244.672 100.426 244.401 100.536 244.125C100.641 243.842 100.96 243.72 101.187 243.738C101.666 243.781 101.979 244.033 102.274 244.217C102.851 244.623 103.22 245.065 103.441 245.384C103.662 245.704 103.741 245.912 103.723 245.919C103.668 245.962 103.269 245.163 102.139 244.42C101.856 244.254 101.525 244.033 101.181 244.027C101.015 244.021 100.874 244.094 100.825 244.236C100.77 244.371 100.819 244.567 100.917 244.739C101.347 245.427 102.329 245.962 103.287 245.777C104.239 245.605 104.945 244.69 104.914 243.879C104.902 243.683 104.841 243.486 104.724 243.382C104.613 243.271 104.454 243.253 104.313 243.32C104.012 243.468 103.821 243.812 103.674 244.1C103.072 245.317 103.201 246.22 103.127 246.207Z" fill="white"/>
<path d="M56.5528 126.759C56.5528 126.759 54.6124 134.283 55.3124 143.442C55.5888 146.992 67.5501 245.089 67.5501 245.089H83.6991L79.1614 152.889L80.4816 153.178C80.4816 153.178 89.299 192.503 90.0174 198.866C90.6622 204.591 98.0981 246.164 98.0981 246.164L112.866 246.336L108.15 191.348L102.66 138.583L100.597 123.22L56.5528 126.759Z" fill="#0C1727"/>
<path d="M81.7032 143.485C81.7093 143.503 81.476 143.645 81.0277 143.866C80.5795 144.075 79.9225 144.4 79.026 144.566C78.5778 144.646 78.0743 144.67 77.5401 144.578C77.012 144.486 76.4409 144.259 75.9866 143.829C75.526 143.399 75.2313 142.803 75.0409 142.177C74.8506 141.55 74.7401 140.899 74.6111 140.235C74.0953 137.576 73.7453 135.143 73.5427 133.38C73.4383 132.496 73.3708 131.783 73.3339 131.286C73.2971 130.788 73.291 130.518 73.3155 130.512C73.3401 130.512 73.3892 130.782 73.469 131.267C73.555 131.826 73.6594 132.52 73.7822 133.343C74.0462 135.094 74.4331 137.514 74.9427 140.162C75.2006 141.47 75.3787 142.809 76.2015 143.589C77.0181 144.357 78.1602 144.437 78.9892 144.314C79.8488 144.185 80.512 143.903 80.9725 143.731C81.4391 143.565 81.697 143.46 81.7032 143.485Z" fill="#455A64"/>
<path d="M76.8474 130.979C76.8413 130.966 76.9518 130.893 77.179 130.88C77.4062 130.862 77.7439 130.929 78.0816 131.169C78.4071 131.409 78.7509 131.832 78.7632 132.416C78.7878 133.006 78.3272 133.589 77.7316 133.804C77.136 134.038 76.4053 133.902 76.0369 133.442C75.6623 132.993 75.6439 132.447 75.7299 132.054C75.8281 131.654 76.0369 131.378 76.2211 131.243C76.3992 131.101 76.5281 131.083 76.5343 131.101C76.5772 131.144 76.0799 131.372 75.9694 132.103C75.9202 132.447 75.9755 132.907 76.2764 133.239C76.565 133.577 77.1176 133.675 77.6088 133.491C78.1 133.307 78.4562 132.871 78.45 132.422C78.4562 131.974 78.1983 131.593 77.9343 131.366C77.3694 130.886 76.8413 131.046 76.8474 130.979Z" fill="#455A64"/>
<path d="M86.2226 88.8526C86.2901 87.188 88.8568 75.2591 88.8568 75.0503C88.8568 74.8414 86.3208 57.3227 86.3208 57.3227L85.7559 51.8374L73.4446 59.2147C73.4446 59.2147 68.2131 55.2773 68.3359 55.0684L65.4499 72.4335L59.5859 126.716C59.5859 126.716 61.6 129.166 69.2753 130.291C78.8481 131.691 92.676 126.716 92.676 126.716C92.676 126.716 86.155 90.5173 86.2226 88.8526Z" fill="#E0E0E0"/>
<g opacity="0.3">
<path d="M57.7129 145.745C57.7129 145.745 59.5243 147.115 60.6295 138.884C61.7348 130.653 65.0014 96.1316 65.0014 96.1316L67.3593 60.4001L60.3102 81.2051L57.7129 145.745Z" fill="black"/>
</g>
<g opacity="0.3">
<path d="M85.1348 118.933C85.1348 118.933 88.3707 150.524 89.5926 149.91C90.8207 149.296 102.628 144.64 102.628 144.64L101.437 134.424L85.1348 118.933Z" fill="black"/>
</g>
<path d="M70.3926 63.8154L71.9215 66.0759H74.218L75.4461 63.8154L74.0952 60.9591L72.2715 61.0574L70.3926 63.8154Z" fill="#648ECE"/>
<path d="M85.3817 59.2147C85.394 59.2331 85.1975 59.3805 84.8413 59.6262C84.4177 59.9088 83.908 60.2466 83.3001 60.652C81.9922 61.5059 80.1747 62.6668 78.1545 63.9383C77.4975 64.3499 76.8589 64.7491 76.2572 65.1238L76.1282 65.2037L76.0484 65.0747C75.066 63.4838 74.4949 61.9788 74.0651 60.9223C73.8563 60.394 73.6967 59.9702 73.5923 59.6754C73.4879 59.3805 73.4388 59.2208 73.4511 59.2147C73.4879 59.2024 73.7826 59.8105 74.2432 60.8486C74.7221 61.8744 75.33 63.3671 76.3063 64.9088L76.0975 64.8597C76.6931 64.485 77.3317 64.0796 77.9888 63.668C80.0089 62.4027 81.8449 61.2724 83.1835 60.4616C83.8098 60.0931 84.344 59.7798 84.7738 59.5218C85.1545 59.3129 85.3694 59.1962 85.3817 59.2147Z" fill="#455A64"/>
<path d="M67.759 61.5181C67.7897 61.4997 68.0353 61.8007 68.4283 62.3228C68.8213 62.8449 69.3616 63.5943 69.9695 64.4665L69.7239 64.4604C69.9756 64.1164 70.2335 63.7294 70.5037 63.3363C71.2774 62.1753 71.9712 61.1188 72.5116 60.3694C73.0458 59.62 73.4142 59.1901 73.4511 59.2146C73.4879 59.2392 73.1809 59.7183 72.6958 60.4923C72.2107 61.2662 71.5476 62.3412 70.7677 63.5083C70.4976 63.9076 70.2335 64.2884 69.9695 64.6385L69.8406 64.8105L69.7239 64.6324C69.1283 63.7479 68.6248 62.98 68.2748 62.4211C67.9248 61.8744 67.7283 61.5365 67.759 61.5181Z" fill="#455A64"/>
<path d="M71.9224 66.0759L64.9961 118.405L69.3987 127.545L76.8469 117.913L74.2188 66.0759H71.9224Z" fill="#648ECE"/>
<path d="M39.5004 51.8681C39.4574 51.8128 43.0188 49.0425 43.0188 49.3127C43.0188 49.583 49.4784 59.0856 49.4784 59.0856L45.6468 61.7146L39.2363 52.0401" fill="#E0E0E0"/>
<path d="M55.6859 144.744C56.9262 145.444 58.4736 144.627 58.6025 143.208L62.4095 104.117L68.163 55.8239L66.1367 57.5438C66.1367 57.5438 55.3298 58.33 55.0719 58.502C54.8078 58.674 52.6464 65.3019 51.6886 73.4961C50.7307 81.6903 51.4675 107.157 51.4675 107.157L47.3965 139.234L55.6859 144.744Z" fill="#0C1727"/>
<path d="M61.3849 105.087C61.3727 105.087 61.3727 104.903 61.3849 104.559C61.3911 104.215 61.4279 103.705 61.4279 103.048C61.4525 101.74 61.4648 99.8417 61.4463 97.4952C61.4218 92.8023 61.3113 86.3219 61.1516 79.1657C61.0349 74.2824 60.9183 69.7123 60.8262 65.8425V65.7565L60.8999 65.7196C61.827 65.2221 62.699 64.7491 63.5218 64.3068L63.4788 64.4849C62.8279 63.5328 62.2384 62.6729 61.6981 61.8805L61.649 61.8068L61.7104 61.7453C63.1718 60.3633 64.3384 59.2576 65.1674 58.4713C65.5603 58.1089 65.8674 57.8202 66.1007 57.6052C66.3156 57.4087 66.4323 57.3104 66.4384 57.3227C66.4446 57.3288 66.3463 57.4394 66.1437 57.6482C65.9226 57.8755 65.6217 58.1765 65.2472 58.5512C64.4367 59.3497 63.2884 60.4861 61.8577 61.8928L61.87 61.7576C62.4165 62.5377 63.0183 63.3977 63.6814 64.3375L63.7612 64.4481L63.6384 64.5157C62.8218 64.9641 61.9498 65.4432 61.0288 65.953L61.1025 65.8302C61.2314 69.6877 61.3604 74.2639 61.4709 79.1535C61.6305 86.3096 61.7104 92.7962 61.6735 97.4891C61.6613 99.8356 61.6121 101.734 61.5507 103.048C61.5323 103.705 61.4709 104.215 61.4525 104.559C61.4218 104.909 61.3972 105.087 61.3849 105.087Z" fill="#455A64"/>
<path d="M60.1564 127.348C60.1686 127.348 60.1625 127.453 60.1502 127.643C60.1257 127.87 60.1011 128.153 60.0704 128.485C59.9783 129.265 59.8555 130.309 59.7081 131.574C59.3888 134.185 58.9283 137.785 58.4002 141.759C58.2099 143.159 58.0318 144.505 57.8599 145.758L57.8292 145.979L57.6388 145.88C55.0231 144.406 52.7573 143.122 51.0933 142.183C50.3196 141.734 49.6871 141.366 49.2082 141.083C48.7722 140.825 48.5389 140.672 48.545 140.659C48.5512 140.641 48.8029 140.764 49.2573 140.997C49.7485 141.255 50.3933 141.599 51.1854 142.017C52.8617 142.932 55.1459 144.179 57.7801 145.616L57.5529 145.727C57.7187 144.474 57.8967 143.122 58.0809 141.722C58.609 137.748 59.1064 134.154 59.4809 131.55C59.6713 130.291 59.8248 129.246 59.9414 128.472C59.9967 128.141 60.0458 127.864 60.0827 127.637C60.1195 127.447 60.1441 127.348 60.1564 127.348Z" fill="#455A64"/>
<path d="M55.8339 58.5021C55.8339 58.5021 54.0532 58.5021 52.8005 59.7982C51.5909 61.0513 48.9997 63.3179 48.9997 63.3179L36.3629 68.5452L47.3848 60.394L39.9305 50.572C39.9305 50.572 27.7727 58.8645 23.0999 62.0157C18.421 65.1668 15.7622 70.173 16.6771 73.5269C17.592 76.8807 18.4824 78.2198 25.1016 79.866C27.8156 80.5417 51.0137 82.9742 51.0137 82.9742L54.8453 65.4309L55.8339 58.5021Z" fill="#0C1727"/>
<path d="M30.9897 76.85C30.959 76.8008 31.4379 76.506 32.1195 75.9286C32.8011 75.3512 33.6668 74.4605 34.3975 73.3118C35.1282 72.1632 35.5703 71.0022 35.8037 70.1361C36.0431 69.2762 36.1107 68.7172 36.1598 68.7233C36.1967 68.7233 36.2028 69.2946 36.0186 70.1914C35.8344 71.0882 35.4107 72.2983 34.6616 73.4838C33.9063 74.6632 32.9853 75.56 32.2546 76.1006C31.53 76.6473 31.0081 76.8745 30.9897 76.85Z" fill="#455A64"/>
<path d="M52.353 65.7196C52.3776 65.7196 52.3714 66.0328 52.3407 66.598C52.3039 67.2184 52.2548 68.0169 52.1934 68.9751C52.0644 70.9838 51.8986 73.7541 51.7574 76.8192C51.6223 79.8844 51.5425 82.6608 51.4934 84.6695C51.4688 85.6277 51.4443 86.4262 51.4258 87.0528C51.4074 87.6179 51.3829 87.925 51.3644 87.925C51.3399 87.925 51.3215 87.6118 51.303 87.0528C51.2846 86.4877 51.2723 85.6768 51.2662 84.6695C51.2601 82.6547 51.303 79.8721 51.4381 76.8069C51.5732 73.7357 51.782 70.9653 51.9662 68.9567C52.0583 67.9555 52.1443 67.1447 52.2118 66.5857C52.2793 66.0267 52.3285 65.7134 52.353 65.7196Z" fill="#455A64"/>
<path d="M86.1055 52.3411C86.5353 52.6728 91.4046 57.3903 91.4046 57.3903C91.4046 57.3903 102.555 58.6372 102.875 58.9689C103.102 59.2023 103.206 82.5688 103.145 83.0909C102.512 88.6008 100.369 107.526 100.369 107.526L109.537 139.468L90.3669 147.349C90.3669 147.349 86.4739 127.686 84.6503 117.047C82.8327 106.414 83.3669 103.404 83.5818 93.1033C83.7968 82.8022 86.0441 57.3903 86.0441 57.3903L86.1055 52.3411Z" fill="#0C1727"/>
<path d="M84.662 103.552C84.6497 103.552 84.6681 103.38 84.705 103.048C84.748 102.723 84.7909 102.237 84.8953 101.623C85.0857 100.388 85.3988 98.6071 85.8287 96.4142C86.6883 92.0284 87.9839 85.9902 89.4944 79.3439C90.7041 74.0121 91.8584 69.0981 92.804 65.1545L92.847 65.2835C92.0304 64.5894 91.2812 63.9444 90.5812 63.3548L90.4891 63.2749L90.5812 63.1889C91.447 62.3719 92.2084 61.6533 92.8777 61.0267L92.8593 61.1189C92.4049 59.9579 92.0365 59.0365 91.7786 58.3731C91.6681 58.0721 91.576 57.8326 91.5023 57.6421C91.4409 57.4763 91.4163 57.3903 91.4225 57.3842C91.4286 57.3842 91.4716 57.464 91.5453 57.6237C91.6251 57.808 91.7295 58.0414 91.8584 58.3363C92.1347 58.9935 92.5277 59.9026 93.0128 61.0513L93.0374 61.1066L92.9944 61.1496C92.3374 61.7884 91.5883 62.5132 90.7348 63.3486L90.7286 63.1828C91.4347 63.7663 92.19 64.4051 93.0128 65.087L93.0742 65.1361L93.0558 65.216C92.147 69.1779 91.0233 74.092 89.8076 79.4115C88.3032 86.0578 86.9646 92.0837 86.0558 96.4572C85.5953 98.6439 85.2515 100.419 85.0243 101.642C84.9076 102.256 84.8401 102.735 84.7787 103.06C84.7111 103.386 84.6743 103.552 84.662 103.552Z" fill="#455A64"/>
<path d="M109.55 139.461C109.556 139.468 109.427 139.529 109.187 139.64C108.923 139.756 108.573 139.91 108.125 140.1C107.167 140.506 105.823 141.077 104.146 141.783C100.714 143.208 95.9367 145.192 90.4349 147.477L90.263 147.551L90.2262 147.367C89.8148 145.149 89.3727 142.778 88.9244 140.327C87.549 132.76 86.2964 125.911 85.3876 120.923C84.9516 118.46 84.6016 116.451 84.3499 115.038C84.2394 114.363 84.1473 113.828 84.0859 113.435C84.0613 113.269 84.0429 113.128 84.0245 113.018C84.0122 112.925 84.006 112.876 84.0122 112.87C84.0183 112.87 84.0306 112.913 84.0552 113.011C84.0797 113.122 84.1104 113.257 84.1473 113.423C84.2271 113.816 84.3376 114.344 84.4727 115.014C84.7429 116.427 85.1297 118.423 85.6087 120.88C86.542 125.868 87.8192 132.705 89.2314 140.266C89.6797 142.717 90.1156 145.088 90.527 147.305L90.3183 147.189C95.8384 144.947 100.628 143 104.073 141.599C105.767 140.923 107.124 140.383 108.088 139.996C108.543 139.824 108.899 139.683 109.169 139.578C109.415 139.498 109.544 139.455 109.55 139.461Z" fill="#455A64"/>
<path d="M96.8507 113.19C96.8077 113.196 96.6972 112.52 96.5805 111.414C96.47 110.315 96.3656 108.785 96.3411 107.096C96.3165 105.407 96.384 103.877 96.4639 102.772C96.5498 101.666 96.6419 100.99 96.6849 100.99C96.734 100.996 96.7156 101.678 96.6849 102.778C96.6604 103.884 96.6296 105.407 96.6542 107.084C96.6788 108.767 96.7463 110.284 96.8016 111.39C96.863 112.502 96.8937 113.183 96.8507 113.19Z" fill="#455A64"/>
<path d="M97.5016 116.034C97.4832 116.046 97.3665 115.886 97.1761 115.597C96.9858 115.303 96.7217 114.873 96.4147 114.326C95.8007 113.239 95.0147 111.697 94.2779 109.934C93.5411 108.171 92.9946 106.531 92.6569 105.327C92.4849 104.725 92.3621 104.234 92.2885 103.896C92.2148 103.552 92.1841 103.361 92.2025 103.355C92.2516 103.343 92.4788 104.08 92.8718 105.259C93.2648 106.439 93.8419 108.06 94.5726 109.811C95.3033 111.562 96.0525 113.11 96.6112 114.221C97.1823 115.333 97.5446 116.015 97.5016 116.034Z" fill="#455A64"/>
<path d="M110.022 104.83L109.807 104.191L106.184 107.827C106.184 107.827 98.5825 107.766 97.1702 108.269C95.7518 108.773 95.9299 110.419 96.7834 110.898C96.7834 110.898 95.715 112.545 97.0843 113.583L97.8948 114.068C97.8948 114.068 97.0597 115.874 98.3737 116.654C99.6816 117.434 99.5404 116.924 99.5281 117.655C99.5158 118.386 99.8965 119.387 100.56 119.559C101.223 119.731 108.585 116.912 110.083 116.058C111.582 115.198 114.16 112.36 114.16 112.36L110.022 104.83Z" fill="#FFBF9D"/>
<path d="M107.284 61.6348C109.058 64.0366 111.975 68.5145 111.975 68.5145C111.975 68.5145 127.565 80.554 131.385 83.6744C136.849 88.1401 133.884 93.8404 132.619 95.6709C131.323 97.5382 113.59 115.382 113.59 115.382L106.001 106.175L117.348 91.6844L117.262 90.7077L103.158 83.097L100.781 88.6499L100.738 63.6496L102.23 59.2269L102.887 58.9812C104.613 59.2146 106.572 60.6704 107.284 61.6348Z" fill="#0C1727"/>
<path d="M104.257 69.2332C104.343 69.2393 104.042 73.275 103.582 78.2382C103.121 83.2014 102.679 87.2187 102.587 87.2125C102.501 87.2064 102.802 83.1769 103.262 78.2075C103.723 73.2382 104.171 69.2209 104.257 69.2332Z" fill="#455A64"/>
<path d="M125.274 86.7949C125.305 86.8993 123.051 87.188 120.773 88.6745C118.477 90.1303 117.28 92.0652 117.2 91.9915C117.169 91.9731 117.421 91.4694 117.98 90.7568C118.538 90.0443 119.435 89.1536 120.601 88.3981C121.768 87.6487 122.953 87.2003 123.831 86.9914C124.709 86.7826 125.268 86.758 125.274 86.7949Z" fill="#455A64"/>
<path d="M107.235 109.959C107.155 110.002 106.848 109.584 106.547 109.025C106.246 108.466 106.062 107.981 106.142 107.938C106.222 107.895 106.529 108.312 106.829 108.871C107.13 109.43 107.314 109.916 107.235 109.959Z" fill="#FF9A6C"/>
<path d="M42.9702 48.9626C42.9702 48.9626 44.2965 47.4453 45.2974 46.7697C46.3044 46.0878 51.0263 44.3372 51.6648 44.2758C52.3034 44.2143 53.335 44.1714 53.335 44.1714C53.335 44.1714 55.9262 43.035 56.5218 44.5522C56.5218 44.5522 56.7183 45.4244 56.4174 45.7316C56.4174 45.7316 57.5595 45.8544 57.885 46.8188C57.885 46.8188 57.9894 47.4454 57.492 48.1149C57.492 48.1149 58.935 49.2574 58.3271 50.4921C58.3271 50.4921 59.4446 51.524 59.242 52.4577C59.0394 53.3914 58.5727 53.5265 57.6639 53.8828C56.7613 54.2391 54.9745 54.5155 54.9745 54.5155C54.9745 54.5155 54.3604 54.8595 54.4832 55.6641C54.6061 56.4688 56.1595 56.3705 57.6946 58.0045C58.8797 59.2698 59.2358 60.2527 58.7323 60.6888C58.4622 60.9222 57.6394 61.2232 56.0613 60.0192C53.8262 58.3177 52.8622 59.2268 51.7999 58.8829C50.7377 58.5389 48.4412 57.5376 48.4412 57.5376C48.4412 57.5376 42.479 51.1063 42.9702 48.9626Z" fill="#FFBF9D"/>
<path d="M56.2571 45.75C56.294 45.7622 56.0238 46.3274 55.2317 46.8802C54.8387 47.1566 54.3229 47.4085 53.7335 47.6173C53.4387 47.7217 53.1256 47.8139 52.8001 47.906C52.6343 47.949 52.4686 47.9981 52.2966 48.0411C52.1186 48.0903 51.8361 48.078 51.6642 47.906C51.3449 47.5989 51.3326 47.175 51.4186 46.8372C51.5107 46.4932 51.7133 46.2107 51.9466 46.0018C52.4379 45.5841 52.9966 45.4613 53.4449 45.3814L53.3528 45.4613C53.5493 44.9146 53.9607 44.6381 54.237 44.5276C54.5256 44.417 54.7036 44.4354 54.7036 44.4539C54.7098 44.4846 54.544 44.5092 54.2984 44.6443C54.0589 44.7794 53.7212 45.062 53.58 45.5288L53.5615 45.5903L53.4878 45.6087C53.058 45.707 52.5422 45.8544 52.1431 46.2168C51.9466 46.3949 51.787 46.6406 51.7194 46.9109C51.6519 47.175 51.6887 47.4945 51.8729 47.6603C52.0326 47.8384 52.3949 47.6664 52.7142 47.5927C53.0396 47.5067 53.3466 47.4207 53.6352 47.3286C54.2124 47.1443 54.7159 46.9232 55.1027 46.6836C55.8948 46.2168 56.2203 45.7192 56.2571 45.75Z" fill="#FF9A6C"/>
<path d="M52.4875 47.8016C52.5367 47.8139 52.2665 48.1824 52.4507 48.7475C52.5428 49.0117 52.7823 49.2942 53.1323 49.4294C53.4823 49.5645 53.9244 49.5338 54.3726 49.4109C56.2208 48.9379 57.5226 48.0411 57.5778 48.1271C57.6331 48.1824 56.3743 49.2266 54.4524 49.7242C53.9796 49.847 53.4577 49.8901 53.0217 49.6996C52.5919 49.5154 52.3217 49.1468 52.2358 48.809C52.1498 48.4711 52.2235 48.1824 52.3033 48.0166C52.3893 47.8507 52.4753 47.7893 52.4875 47.8016Z" fill="#FF9A6C"/>
<path d="M53.8333 49.6874C53.8763 49.7304 53.4035 49.9516 53.1947 50.6334C53.0964 50.9651 53.1394 51.4012 53.4219 51.7452C53.557 51.9172 53.7473 52.0585 53.9745 52.126C54.1956 52.1936 54.4534 52.1752 54.7113 52.1137C55.2333 51.9725 55.7552 51.7636 56.2157 51.6162C56.6824 51.4565 57.1061 51.3336 57.4315 51.1739C58.1069 50.8852 58.2911 50.4368 58.3341 50.4552C58.3525 50.4614 58.3341 50.5842 58.2236 50.7747C58.1069 50.9589 57.8736 51.1924 57.5359 51.3766C57.1982 51.5671 56.7806 51.7206 56.3201 51.8926C55.8473 52.0585 55.3684 52.2673 54.7912 52.4209C54.5026 52.4884 54.1833 52.5192 53.8885 52.4209C53.5938 52.3287 53.3605 52.1383 53.2008 51.9233C52.8631 51.4872 52.8447 50.9282 52.9921 50.5597C53.1271 50.1788 53.3666 49.9454 53.5385 49.8226C53.7043 49.6997 53.8271 49.669 53.8333 49.6874Z" fill="#FF9A6C"/>
<path d="M56.3866 54.2513C56.3927 54.2882 56.098 54.4171 55.5699 54.4724C55.3059 54.4909 54.9805 54.5031 54.6243 54.3619C54.2498 54.2022 54.0042 53.8459 53.8384 53.465C53.7463 53.2378 53.777 52.9798 53.8752 52.7832C53.9796 52.5867 54.0901 52.4454 54.2805 52.3225C54.6121 52.1505 54.8945 52.0707 55.1463 51.9908C55.6436 51.8434 55.9752 51.8188 55.9813 51.868C55.9875 51.911 55.6927 52.0092 55.2199 52.2058C54.9928 52.3041 54.6919 52.4208 54.434 52.5744C54.2191 52.7341 54.0164 53.0719 54.1392 53.3483C54.2743 53.6739 54.4954 53.981 54.7471 54.0977C55.0173 54.2267 55.3182 54.2452 55.5638 54.2513C56.055 54.2513 56.3743 54.2022 56.3866 54.2513Z" fill="#FF9A6C"/>
<path d="M49.9711 49.8471C49.9956 49.8226 50.3518 50.1113 50.7263 50.7501C50.9105 51.0634 51.0947 51.4688 51.2237 51.9356C51.2912 52.169 51.3158 52.4455 51.3956 52.6359C51.4632 52.8324 51.6412 52.8754 51.9298 52.9553C53.0474 53.2747 53.8026 54.0794 54.1403 54.7244C54.4965 55.3816 54.5026 55.8546 54.4719 55.8546C54.4166 55.8669 54.3245 55.4246 53.9438 54.8411C53.5754 54.2637 52.8509 53.5511 51.8377 53.2624C51.7149 53.2256 51.5737 53.201 51.4263 53.1273C51.2728 53.0536 51.15 52.9 51.1009 52.7587C50.9965 52.4639 50.9965 52.2366 50.9351 52.0155C50.8307 51.5671 50.6772 51.1801 50.5237 50.8607C50.2167 50.2218 49.9281 49.8779 49.9711 49.8471Z" fill="#FF9A6C"/>
<path d="M53.2671 52.4332C53.2057 52.4823 52.211 51.1801 51.4128 49.3373C50.6022 47.4945 50.3259 45.8852 50.4058 45.8667C50.4979 45.8422 50.9154 47.3962 51.7075 49.2083C52.4935 51.0204 53.347 52.384 53.2671 52.4332Z" fill="#FF9A6C"/>
</g>
<defs>
<clipPath id="clip0_509_5816">
<rect width="240" height="267" fill="white" transform="translate(16.5)"/>
</clipPath>
</defs>
</svg>
