<svg width="451" height="446" viewBox="0 0 451 446" fill="none" xmlns="http://www.w3.org/2000/svg">
<g clip-path="url(#clip0_424_4972)">
<path d="M431.605 300.707C388.907 401.273 275.167 457.611 176.534 442.413C160.484 439.94 116.482 432.574 77.5262 397.824C2.53099 330.924 -13.5059 198.456 46.9896 105.103C91.0198 37.1575 169.948 -1.35705 244.947 0.569075C261.101 0.984798 323.011 3.54173 377.421 48.4189C385.412 55.0111 403.039 70.6738 418.923 95.5224C456.227 153.873 459.433 235.167 431.605 300.707Z" fill="url(#paint0_linear_424_4972)"/>
<path d="M165.842 147.144C165.547 147.122 165.268 146.958 165.11 146.68C164.515 145.629 163.888 144.583 163.246 143.567C162.975 143.138 163.103 142.57 163.531 142.299C163.96 142.029 164.528 142.156 164.799 142.584C165.457 143.624 166.1 144.698 166.71 145.774C166.961 146.215 166.805 146.777 166.364 147.027C166.198 147.12 166.017 147.157 165.842 147.144Z" fill="#91B3FA"/>
<path d="M92.8482 262.467C91.4585 262.38 90.0336 262.219 88.6456 262.041C88.1417 261.975 87.7871 261.515 87.8513 261.012C87.917 260.508 88.3792 260.167 88.8798 260.218C90.2342 260.393 91.6382 260.529 92.9829 260.634C93.9794 260.707 95 260.762 96.0174 260.797C96.5373 260.778 96.9224 261.239 96.9047 261.746C96.8887 262.253 96.4634 262.651 95.9564 262.634C94.9166 262.598 93.8703 262.542 92.8482 262.467ZM107.68 262.125C107.25 262.093 106.891 261.76 106.838 261.317C106.778 260.813 107.138 260.356 107.641 260.295C109.93 260.022 112.242 259.638 114.511 259.157L114.708 259.115C115.203 259.009 115.692 259.327 115.798 259.823C115.904 260.319 115.586 260.809 115.09 260.913L114.893 260.955C112.569 261.447 110.204 261.841 107.86 262.12C107.797 262.128 107.738 262.128 107.68 262.125ZM126.116 257.598C125.771 257.573 125.456 257.353 125.325 257.008C125.145 256.534 125.383 256.003 125.858 255.823C128.088 254.976 130.296 254.014 132.425 252.968C132.88 252.745 133.432 252.931 133.655 253.387C133.879 253.841 133.691 254.393 133.236 254.618C131.057 255.69 128.794 256.674 126.511 257.541C126.381 257.59 126.246 257.608 126.116 257.598ZM142.889 248.72C142.625 248.701 142.369 248.566 142.204 248.33C141.914 247.915 142.015 247.342 142.43 247.051C144.377 245.688 146.283 244.217 148.095 242.674C148.482 242.345 149.061 242.393 149.39 242.778C149.719 243.165 149.672 243.745 149.286 244.075C147.431 245.653 145.478 247.162 143.485 248.558C143.305 248.684 143.095 248.737 142.889 248.72ZM156.98 236.005C156.789 235.99 156.603 235.917 156.447 235.783C156.064 235.451 156.022 234.87 156.354 234.486C157.909 232.69 159.4 230.798 160.784 228.859C161.078 228.446 161.653 228.35 162.067 228.645C162.479 228.941 162.575 229.515 162.28 229.928C160.863 231.912 159.335 233.849 157.742 235.689C157.546 235.918 157.261 236.026 156.98 236.005ZM167.566 220.243C167.449 220.235 167.331 220.203 167.219 220.146C166.767 219.917 166.585 219.363 166.815 218.91C167.892 216.787 168.878 214.588 169.751 212.376C169.937 211.903 170.472 211.675 170.944 211.859C171.415 212.045 171.648 212.58 171.462 213.052C170.57 215.317 169.557 217.567 168.456 219.742C168.281 220.082 167.924 220.268 167.566 220.243ZM174.01 202.383C173.965 202.379 173.92 202.373 173.874 202.363C173.379 202.251 173.068 201.758 173.18 201.264C173.707 198.94 174.129 196.566 174.434 194.209C174.499 193.705 174.962 193.335 175.462 193.417C175.965 193.481 176.321 193.943 176.255 194.445C175.942 196.859 175.51 199.29 174.973 201.67C174.872 202.118 174.456 202.415 174.01 202.383ZM175.886 183.479C175.421 183.444 175.048 183.062 175.037 182.587C174.978 180.21 174.804 177.805 174.522 175.441C174.463 174.937 174.822 174.479 175.326 174.418C175.831 174.357 176.287 174.719 176.348 175.223C176.637 177.645 176.815 180.107 176.876 182.54C176.889 183.048 176.488 183.47 175.981 183.483C175.947 183.483 175.916 183.481 175.886 183.479ZM173.097 164.692C172.722 164.664 172.386 164.404 172.28 164.019C171.645 161.717 170.897 159.427 170.056 157.21C169.876 156.737 170.116 156.205 170.589 156.026C171.062 155.847 171.593 156.083 171.775 156.56C172.635 158.83 173.402 161.175 174.052 163.531C174.187 164.021 173.899 164.526 173.41 164.661C173.306 164.69 173.2 164.7 173.097 164.692Z" fill="#91B3FA"/>
<path d="M77.13 259.638C77.0675 259.633 77.0049 259.622 76.9407 259.605C75.7597 259.261 74.5674 258.886 73.3976 258.486C72.9178 258.322 72.6611 257.8 72.8247 257.319C72.9884 256.837 73.5115 256.576 73.9913 256.746C75.1339 257.136 76.2988 257.504 77.4526 257.839C77.9404 257.98 78.2196 258.491 78.0784 258.977C77.9564 259.402 77.5537 259.67 77.13 259.638Z" fill="#91B3FA"/>
<path d="M29.9521 220.976C29.6456 220.954 29.3568 220.777 29.2043 220.483C28.6411 219.397 28.0923 218.273 27.5724 217.143C27.3606 216.682 27.5627 216.137 28.0233 215.925C28.4854 215.713 29.0294 215.915 29.2412 216.376C29.7483 217.48 30.2842 218.578 30.8346 219.639C31.0689 220.09 30.8924 220.644 30.4415 220.878C30.2858 220.957 30.1158 220.987 29.9521 220.976Z" fill="#91B3FA"/>
<path d="M24.3073 206.813C23.935 206.785 23.6029 206.53 23.4937 206.151C22.9738 204.346 22.5117 202.495 22.1202 200.652C22.0126 200.145 21.9099 199.638 21.8137 199.132C21.7174 198.633 22.0447 198.151 22.5422 198.057C23.0428 197.959 23.5226 198.288 23.6189 198.785C23.7136 199.28 23.8147 199.776 23.919 200.272C24.3009 202.071 24.7534 203.878 25.2605 205.642C25.4017 206.13 25.1193 206.639 24.6314 206.78C24.5207 206.811 24.4132 206.821 24.3073 206.813ZM21.3098 188.368C20.8509 188.335 20.4802 187.961 20.4625 187.49C20.3647 185.094 20.3791 182.665 20.5043 180.272C20.5299 179.765 20.9632 179.376 21.4687 179.402C21.9565 179.434 22.3657 179.861 22.3384 180.368C22.2164 182.707 22.2036 185.078 22.2983 187.416C22.3191 187.924 21.9244 188.352 21.4173 188.371C21.3804 188.373 21.3451 188.371 21.3098 188.368ZM22.8294 169.743C22.7909 169.739 22.7508 169.735 22.7107 169.727C22.2132 169.624 21.8939 169.138 21.9966 168.64C22.4796 166.292 23.0797 163.939 23.7794 161.646C23.927 161.16 24.4437 160.889 24.9267 161.035C25.4113 161.183 25.6857 161.696 25.5381 162.183C24.8561 164.422 24.2704 166.719 23.797 169.012C23.7023 169.47 23.2835 169.776 22.8294 169.743ZM28.7891 152.033C28.6784 152.025 28.5677 151.997 28.4618 151.945C28.0044 151.727 27.8103 151.178 28.0285 150.721C29.0619 148.557 30.2076 146.417 31.4336 144.358C31.6935 143.921 32.2568 143.777 32.6932 144.038C33.1297 144.298 33.2725 144.862 33.011 145.298C31.8139 147.308 30.6938 149.399 29.6861 151.512C29.5176 151.865 29.155 152.061 28.7891 152.033ZM38.8038 136.265C38.6224 136.252 38.4427 136.185 38.2903 136.059C37.8971 135.738 37.8394 135.159 38.1619 134.767C39.6783 132.915 41.3006 131.111 42.9839 129.401C43.3401 129.04 43.921 129.035 44.2821 129.392C44.6431 129.748 44.6479 130.329 44.2917 130.692C42.6485 132.36 41.0631 134.122 39.582 135.931C39.3879 136.17 39.0926 136.286 38.8038 136.265ZM52.2957 123.349C52.0406 123.329 51.7935 123.204 51.6282 122.983C51.3249 122.575 51.4067 122 51.8143 121.695C53.7303 120.262 55.7377 118.899 57.782 117.647C58.2153 117.382 58.7801 117.519 59.0449 117.951C59.3097 118.382 59.1749 118.949 58.7416 119.214C56.7454 120.437 54.7845 121.768 52.9135 123.167C52.729 123.307 52.5091 123.365 52.2957 123.349ZM68.4963 114.063C68.1626 114.037 67.8561 113.832 67.7165 113.503C67.5191 113.036 67.7389 112.496 68.2059 112.299C70.4139 111.37 72.6909 110.532 74.9759 109.81C75.4605 109.655 75.9756 109.925 76.1281 110.41C76.2821 110.893 76.0125 111.41 75.5295 111.562C73.2975 112.267 71.0734 113.086 68.9184 113.994C68.782 114.052 68.6375 114.073 68.4963 114.063ZM86.4573 108.938C86.0433 108.907 85.6886 108.594 85.6196 108.166C85.5394 107.665 85.8812 107.193 86.3818 107.115C88.7487 106.736 91.1621 106.463 93.5514 106.304C94.0537 106.273 94.495 106.654 94.5287 107.159C94.5624 107.667 94.1789 108.103 93.6734 108.137C91.3386 108.293 88.983 108.559 86.6707 108.928C86.5985 108.94 86.5263 108.943 86.4573 108.938ZM112.194 109.172C112.162 109.171 112.132 109.166 112.1 109.161C109.792 108.747 107.443 108.437 105.115 108.241C104.609 108.198 104.234 107.755 104.277 107.248C104.319 106.745 104.758 106.371 105.261 106.408C105.264 106.408 105.267 106.408 105.27 106.408C107.655 106.611 110.062 106.927 112.425 107.35C112.924 107.44 113.257 107.919 113.168 108.418C113.083 108.885 112.658 109.206 112.194 109.172Z" fill="#91B3FA"/>
<path d="M126.896 113.347C126.807 113.341 126.715 113.32 126.627 113.286C125.512 112.845 124.366 112.422 123.222 112.034C122.742 111.87 122.485 111.349 122.649 110.869C122.813 110.389 123.336 110.126 123.814 110.296C124.985 110.694 126.158 111.125 127.302 111.578C127.774 111.764 128.005 112.299 127.819 112.771C127.667 113.153 127.288 113.376 126.896 113.347Z" fill="#91B3FA"/>
<path d="M127.188 132.302C126.864 132.075 126.43 132.08 126.111 132.313L116.989 138.974C112.086 137.027 106.839 135.847 101.419 135.56L95.9147 125.703C95.7221 125.358 95.3306 125.172 94.9407 125.242L81.606 127.632C81.216 127.703 80.9144 128.011 80.8534 128.403L79.1123 139.558C74.1283 141.709 69.616 144.637 65.6958 148.167L54.8291 145.086C54.4488 144.979 54.0412 145.123 53.8149 145.449L46.0741 156.571C45.8478 156.897 45.8526 157.329 46.0853 157.648L52.7446 166.773C50.7982 171.677 49.6187 176.925 49.3315 182.347L39.4773 187.853C39.1323 188.046 38.9462 188.437 39.0168 188.827L41.4061 202.166C41.4751 202.556 41.7848 202.857 42.1763 202.918L53.3287 204.66C55.479 209.645 58.4058 214.159 61.9345 218.08L58.8552 228.95C58.7476 229.331 58.8937 229.738 59.2178 229.965L70.3365 237.708C70.6622 237.934 71.0939 237.929 71.4132 237.695L80.5357 231.034C85.4379 232.981 90.6851 234.16 96.1057 234.448L101.61 244.305C101.802 244.65 102.194 244.836 102.584 244.765L115.918 242.375C116.308 242.306 116.61 241.996 116.671 241.605L118.412 230.449C123.396 228.298 127.908 225.369 131.829 221.841L142.695 224.921C143.076 225.029 143.483 224.884 143.709 224.559L151.45 213.437C151.677 213.113 151.672 212.679 151.437 212.36L144.778 203.235C146.725 198.331 147.904 193.082 148.191 187.66L158.045 182.155C158.39 181.962 158.577 181.571 158.506 181.181L156.117 167.842C156.048 167.452 155.738 167.15 155.346 167.088L144.194 165.346C142.044 160.361 139.115 155.847 135.588 151.926L138.668 141.056C138.775 140.676 138.631 140.268 138.305 140.042L127.188 132.302Z" fill="#91B3FA"/>
<path d="M97.7811 198.386C96.5134 198.291 95.2505 198.013 94.0278 197.553C90.6773 196.288 88.02 193.793 86.5453 190.529C85.0706 187.264 84.9535 183.62 86.2179 180.269C87.4824 176.917 89.976 174.259 93.2399 172.784C96.5022 171.309 100.146 171.194 103.497 172.458C106.847 173.723 109.505 176.218 110.979 179.482C112.454 182.747 112.571 186.391 111.307 189.742C110.042 193.094 107.549 195.752 104.285 197.227C102.212 198.163 99.9859 198.551 97.7811 198.386ZM99.5398 174.373C97.7875 174.242 96.0192 174.551 94.3744 175.296C89.0229 177.715 86.6367 184.039 89.0566 189.392C90.228 191.985 92.3397 193.967 95.0018 194.972C97.6639 195.976 100.557 195.885 103.15 194.712C105.743 193.54 107.724 191.428 108.728 188.766C109.733 186.103 109.639 183.209 108.468 180.616C107.295 178.023 105.185 176.041 102.523 175.036C101.55 174.669 100.548 174.449 99.5398 174.373Z" fill="#BDD0FB"/>
<path d="M96.0219 219.246C90.0188 218.798 84.2228 216.751 79.1537 213.222C71.6856 208.021 66.6887 200.223 65.0841 191.264C64.569 188.386 64.4229 185.497 64.6348 182.656C65.0825 176.652 67.1284 170.855 70.657 165.786C75.8561 158.316 83.6516 153.317 92.6087 151.712C92.843 151.671 93.0773 151.63 93.3116 151.595C95.2388 151.29 97.1852 151.15 99.1188 151.178C99.3595 151.181 99.6018 151.187 99.8425 151.195L99.7479 153.948C97.5366 153.871 95.2998 154.032 93.0966 154.425C85.3027 155.821 78.4653 160.014 73.7027 166.282C73.4347 166.635 73.1731 166.995 72.9196 167.359C69.6766 172.019 67.7959 177.346 67.3835 182.864C67.1878 185.477 67.3226 188.131 67.7959 190.776C69.2706 199.01 73.8631 206.178 80.7263 210.958C87.5894 215.74 95.9047 217.559 104.137 216.084C118.484 213.512 128.808 201.49 129.843 187.578C130.034 185.012 129.909 182.381 129.436 179.733C128.434 174.144 125.944 168.942 122.234 164.685L124.31 162.873C128.349 167.503 131.06 173.166 132.149 179.245C132.666 182.126 132.801 184.988 132.594 187.781C131.466 202.917 120.233 215.998 104.623 218.796C101.747 219.311 98.8621 219.457 96.0219 219.246Z" fill="#BDD0FB"/>
<path d="M265.711 111.492C265.298 111.461 264.912 111.222 264.709 110.826C263.987 109.408 263.193 108.01 262.346 106.67C261.985 106.099 262.155 105.344 262.726 104.981C263.297 104.622 264.053 104.792 264.414 105.362C265.302 106.765 266.134 108.23 266.89 109.715C267.197 110.318 266.956 111.054 266.354 111.362C266.149 111.466 265.926 111.508 265.711 111.492Z" fill="#91B3FA"/>
<path d="M222.276 188.293C221.68 188.248 221.193 187.773 221.148 187.16C221.1 186.485 221.607 185.9 222.281 185.851C224.649 185.681 227.038 185.344 229.386 184.845C230.214 184.67 231.032 184.474 231.843 184.262C232.497 184.089 233.165 184.481 233.337 185.136C233.508 185.789 233.117 186.458 232.464 186.63C231.618 186.853 230.761 187.055 229.895 187.24C227.438 187.763 224.935 188.118 222.455 188.294C222.395 188.298 222.334 188.298 222.276 188.293ZM246.809 180.261C246.435 180.234 246.079 180.035 245.864 179.694C245.503 179.121 245.673 178.367 246.246 178.006C248.971 176.285 251.551 174.291 253.912 172.084C254.404 171.622 255.178 171.648 255.641 172.142C256.104 172.635 256.076 173.41 255.584 173.873C253.111 176.184 250.41 178.271 247.554 180.076C247.323 180.221 247.061 180.28 246.809 180.261ZM264.603 161.563C264.428 161.55 264.255 161.5 264.092 161.407C263.504 161.075 263.297 160.329 263.629 159.74C265.223 156.926 266.556 153.95 267.596 150.895C267.814 150.257 268.506 149.91 269.149 150.131C269.79 150.35 270.131 151.043 269.913 151.684C268.824 154.883 267.426 157.998 265.759 160.945C265.518 161.372 265.061 161.597 264.603 161.563ZM271.459 136.671C270.815 136.623 270.313 136.079 270.327 135.425C270.395 132.206 270.157 128.952 269.62 125.758C269.507 125.09 269.957 124.459 270.624 124.349C271.288 124.23 271.922 124.686 272.035 125.352C272.598 128.698 272.847 132.104 272.776 135.477C272.761 136.153 272.203 136.689 271.527 136.676C271.502 136.674 271.479 136.673 271.459 136.671Z" fill="#91B3FA"/>
<path d="M206.195 186.961C206.131 186.956 206.064 186.946 205.998 186.93C204.379 186.54 202.763 186.068 201.193 185.531C200.553 185.311 200.213 184.616 200.431 183.975C200.65 183.336 201.346 182.998 201.985 183.214C203.483 183.728 205.025 184.177 206.572 184.55C207.229 184.709 207.633 185.37 207.474 186.027C207.333 186.617 206.782 187.004 206.195 186.961Z" fill="#91B3FA"/>
<path d="M171.619 159.902C171.21 159.871 170.827 159.637 170.623 159.245C169.861 157.774 169.155 156.242 168.527 154.695C168.274 154.069 168.575 153.355 169.201 153.101C169.827 152.847 170.541 153.149 170.795 153.777C171.393 155.252 172.067 156.714 172.796 158.119C173.107 158.719 172.873 159.457 172.273 159.769C172.064 159.876 171.838 159.918 171.619 159.902Z" fill="#91B3FA"/>
<path d="M165.865 140.071C165.278 140.027 164.792 139.564 164.739 138.957C164.485 136.064 164.466 133.13 164.681 130.236C164.713 129.813 164.749 129.39 164.792 128.97C164.859 128.297 165.476 127.848 166.13 127.872C166.803 127.939 167.294 128.54 167.226 129.211C167.186 129.612 167.152 130.013 167.122 130.418C166.916 133.18 166.934 135.981 167.176 138.743C167.236 139.416 166.738 140.01 166.064 140.069C165.997 140.076 165.93 140.076 165.865 140.071ZM169.815 114.983C169.685 114.973 169.556 114.943 169.429 114.89C168.807 114.628 168.515 113.909 168.778 113.286C170.07 110.225 171.653 107.266 173.484 104.487C173.857 103.924 174.614 103.768 175.179 104.14C175.744 104.513 175.899 105.272 175.527 105.835C173.778 108.487 172.266 111.315 171.032 114.238C170.824 114.734 170.323 115.02 169.815 114.983ZM184.987 94.6221C184.666 94.5981 184.354 94.4472 184.133 94.1791C183.703 93.6575 183.778 92.8854 184.3 92.4568C186.866 90.3445 189.645 88.4601 192.559 86.855C193.151 86.5308 193.894 86.7459 194.221 87.3381C194.547 87.9304 194.332 88.6736 193.738 89.001C190.956 90.5339 188.303 92.3316 185.853 94.3477C185.601 94.5547 185.29 94.6446 184.987 94.6221ZM207.898 83.6913C207.367 83.6512 206.905 83.266 206.791 82.7186C206.654 82.0557 207.081 81.4089 207.742 81.2724C211.012 80.5983 214.349 80.2243 217.657 80.1601C218.347 80.12 218.891 80.6818 218.906 81.3591C218.919 82.0349 218.383 82.5934 217.707 82.6063C214.546 82.6689 211.359 83.0268 208.236 83.6705C208.122 83.6945 208.009 83.6994 207.898 83.6913Z" fill="#91B3FA"/>
<path d="M237.938 86.2739C237.817 86.2642 237.697 86.2385 237.578 86.192C236.102 85.6077 234.581 85.0877 233.058 84.6447C232.41 84.4553 232.036 83.7763 232.225 83.1279C232.413 82.4794 233.091 82.1038 233.741 82.2948C235.336 82.7587 236.93 83.3028 238.477 83.916C239.106 84.1647 239.414 84.8758 239.165 85.5034C238.965 86.0138 238.457 86.3124 237.938 86.2739Z" fill="#91B3FA"/>
<path d="M238.186 98.6478C237.963 98.4937 237.668 98.4969 237.45 98.6558L231.209 103.213C227.856 101.88 224.266 101.073 220.558 100.877L216.793 94.1342C216.661 93.8983 216.393 93.7715 216.127 93.818L207.005 95.452C206.738 95.5002 206.531 95.712 206.49 95.9785L205.299 103.609C201.889 105.081 198.803 107.084 196.12 109.498L188.686 107.392C188.426 107.319 188.147 107.418 187.993 107.641L182.697 115.249C182.543 115.473 182.546 115.768 182.705 115.986L187.261 122.228C185.929 125.583 185.122 129.174 184.926 132.883L178.185 136.649C177.949 136.78 177.822 137.048 177.869 137.315L179.502 146.44C179.551 146.706 179.762 146.913 180.029 146.955L187.657 148.146C189.129 151.557 191.131 154.644 193.545 157.327L191.438 164.764C191.364 165.024 191.464 165.303 191.687 165.457L199.293 170.754C199.516 170.91 199.811 170.905 200.029 170.746L206.27 166.189C209.623 167.521 213.213 168.329 216.921 168.525L220.686 175.268C220.818 175.504 221.086 175.63 221.352 175.582L230.474 173.948C230.741 173.9 230.948 173.688 230.989 173.422L232.18 165.791C235.59 164.319 238.676 162.316 241.359 159.902L248.792 162.009C249.051 162.083 249.331 161.984 249.486 161.761L254.782 154.152C254.936 153.931 254.933 153.634 254.774 153.416L250.218 147.173C251.55 143.819 252.357 140.228 252.553 136.519L259.294 132.753C259.53 132.621 259.657 132.353 259.608 132.087L257.975 122.962C257.927 122.696 257.715 122.488 257.449 122.447L249.82 121.256C248.349 117.845 246.346 114.758 243.933 112.075L246.04 104.638C246.113 104.378 246.014 104.099 245.791 103.943L238.186 98.6478Z" fill="#91B3FA"/>
<path d="M218.01 144.739C214.451 144.472 211.141 142.321 209.571 138.848C207.285 133.79 209.539 127.814 214.595 125.527C219.652 123.241 225.626 125.498 227.911 130.554C230.198 135.612 227.943 141.588 222.887 143.875C221.305 144.589 219.632 144.86 218.01 144.739ZM216.109 128.872C212.896 130.325 211.463 134.121 212.915 137.334C214.368 140.546 218.163 141.981 221.375 140.527C224.588 139.074 226.019 135.278 224.568 132.065C223.116 128.854 219.323 127.419 216.109 128.872Z" fill="#BDD0FB"/>
<path d="M216.799 159.014C212.536 158.697 208.418 157.242 204.817 154.735C199.512 151.04 195.964 145.503 194.824 139.138C194.458 137.093 194.353 135.042 194.504 133.024C194.824 128.761 196.276 124.644 198.782 121.042C202.475 115.736 208.014 112.185 214.375 111.046C216.074 110.741 217.802 110.617 219.513 110.678L219.383 114.347C217.934 114.296 216.466 114.4 215.023 114.659C209.861 115.585 205.339 118.379 202.213 122.559C202.166 122.622 202.12 122.684 202.073 122.747C201.979 122.877 201.886 123.007 201.794 123.139C199.668 126.195 198.436 129.687 198.166 133.304C198.038 135.015 198.126 136.756 198.436 138.49C199.403 143.889 202.414 148.588 206.913 151.721C211.414 154.857 216.864 156.051 222.26 155.08C227.658 154.114 232.355 151.103 235.487 146.6C237.613 143.544 238.846 140.052 239.115 136.435C239.244 134.724 239.155 132.983 238.846 131.249C238.189 127.585 236.557 124.172 234.125 121.384L236.891 118.97C239.76 122.259 241.686 126.28 242.459 130.601C242.825 132.646 242.93 134.697 242.779 136.715C242.459 140.978 241.007 145.095 238.501 148.697C234.808 154.003 229.271 157.554 222.908 158.693C220.867 159.062 218.816 159.165 216.799 159.014Z" fill="#BDD0FB"/>
<path d="M185.533 357.142C153.726 350.126 177.688 302.928 178.816 301.101L121.816 321.122C121.816 321.122 116.726 348.561 152.197 373.811C161.171 380.2 170.251 382.954 178.811 383.516C178.227 372.503 181.488 363.697 185.533 357.142Z" fill="url(#paint1_linear_424_4972)"/>
<path d="M250.275 359.314C240.93 347.889 225.423 352.238 225.423 352.238C206.942 357.996 194.181 359.049 185.532 357.142C181.487 363.697 178.225 372.503 178.81 383.517C197.333 384.732 213.415 375.652 220.686 370.713C223.303 368.935 226.878 369.514 228.73 372.081C230.61 374.687 232.22 377.983 231.008 380.623C228.616 385.83 234.442 389.36 235.481 387.52C236.519 385.681 237.214 373.219 237.214 373.219C237.214 373.219 246.235 389.528 249.778 395.817C253.321 402.106 260.914 398.987 260.914 398.987C260.914 398.987 259.623 370.739 250.275 359.314Z" fill="url(#paint2_linear_424_4972)"/>
<path d="M58.6624 237.249C58.6624 237.249 98.6857 205.711 203.654 250.569C203.654 250.569 215.007 263.096 211.138 278.36C207.271 293.625 152.604 378.556 152.867 416.647C152.867 416.647 113.368 443.709 58.2885 423.351C58.2901 423.351 33.4981 324.427 58.6624 237.249Z" fill="#2A4E84"/>
<path d="M143.584 194.609L129.222 228.273C127.795 231.615 128.408 235.501 130.863 238.178C135.827 243.59 145.893 250.634 161.833 244.553C166.575 242.744 170.011 238.55 170.839 233.542L176.949 196.647L143.584 194.609Z" fill="url(#paint3_linear_424_4972)"/>
<path d="M57.6848 363.598C46.1008 343.691 85.3683 280.137 85.3683 280.137L58.6604 237.249C58.6604 237.249 -33.9588 347.9 13.5631 400.944C20.3749 408.547 27.79 413.096 35.4892 415.331C37.4132 387.62 48.8239 371.81 57.6848 363.598Z" fill="#2A4E84"/>
<path d="M56.7285 363.572C56.1621 363.739 55.5347 363.506 55.2234 362.972C43.3778 342.621 81.3071 280.784 82.9262 278.161C83.3065 277.546 84.1152 277.352 84.7346 277.734C85.3524 278.116 85.5418 278.927 85.1615 279.543C84.7715 280.171 46.4363 342.651 57.494 361.651C57.8582 362.278 57.6464 363.083 57.019 363.449C56.9259 363.502 56.828 363.543 56.7285 363.572Z" fill="#254574"/>
<path d="M150.805 361.405C143.698 363.376 137.087 366.911 129.948 368.729C122.019 370.749 114.182 373.119 106.197 374.919C93.7755 377.716 77.4337 380.922 66.5252 372.383C65.6057 371.662 58.2083 363.298 57.6868 363.598C37.8805 375.044 34.0293 401.791 34.0293 414.769C70.1405 434.521 126.933 396.059 142.231 384.819C144.747 382.97 147.864 382.169 150.957 382.593C157.212 383.451 167.996 384.604 173.683 383.326C182.001 381.456 196.103 410.295 209.104 400.213C209.102 400.213 193.912 349.45 150.805 361.405Z" fill="url(#paint4_linear_424_4972)"/>
<path d="M190.129 147.027C190.129 147.027 199.199 176.407 198.377 191.204C197.556 206.002 199.661 215.899 182.331 216.963C165 218.027 151.624 207.959 145.501 192.445C145.501 192.445 135.862 168.516 139.62 159.576C143.376 150.635 190.129 147.027 190.129 147.027Z" fill="url(#paint5_linear_424_4972)"/>
<path d="M152.48 182.559L154.629 182.799C154.629 182.799 147.8 163.643 155.937 161.319C164.072 158.995 195.593 156.147 203.462 145.95C211.049 136.12 206.849 121.861 198.722 117.095C198.208 116.793 197.541 116.976 197.205 117.471L196.347 118.732C195.76 119.596 194.418 119.305 194.242 118.276C194.073 117.299 192.821 116.951 192.207 117.729C189.806 120.774 183.702 125.477 168.615 126.557C147.207 128.088 132.395 135.034 130.437 149.496C130.314 150.412 129.275 150.809 128.544 150.244C127.101 149.127 124.672 148.408 121.05 150.823C114.75 155.025 115.706 167.853 127.178 179.6C127.724 180.158 127.615 181.094 126.917 181.444C124.461 182.68 120.655 185.845 128.969 191.559C137.474 197.403 142.885 197.474 144.963 197.182C145.521 197.103 145.943 196.649 145.97 196.084L146.609 183.145C146.643 182.476 147.233 181.974 147.897 182.047L152.48 182.559Z" fill="#254574"/>
<path d="M152.711 185.307C152.711 185.307 150.055 166.89 141.474 171.014C132.892 175.137 143.401 191.532 149.774 192.922L152.711 185.307Z" fill="url(#paint6_linear_424_4972)"/>
<path d="M124.542 417.21C124.653 417.213 124.765 417.215 124.877 417.212L270.607 414.956C274.21 414.902 277.072 412.083 277.002 408.663C276.931 405.241 273.942 402.456 270.351 402.57L124.62 404.825C121.018 404.88 118.155 407.698 118.226 411.119C118.293 414.433 121.092 417.098 124.542 417.21Z" fill="#254574"/>
<path d="M181.265 203.795C155.3 205.997 134.057 185.661 133.908 185.356V180.773C134.051 181.065 156.436 203.667 181.116 201.572L181.265 203.795Z" fill="url(#paint7_linear_424_4972)"/>
<path d="M191.851 202.67C191.851 204.398 190.604 205.8 189.065 205.8H181.635C180.096 205.8 178.85 204.398 178.85 202.67C178.85 200.941 180.096 199.54 181.635 199.54H189.065C190.604 199.54 191.851 200.941 191.851 202.67Z" fill="url(#paint8_linear_424_4972)"/>
<path d="M147.176 157.711C147.176 157.711 141.246 126.063 177.821 125.886C178.328 125.883 178.412 125.158 177.919 125.044C167.9 122.734 138.817 119.313 138.379 157.292C143.952 159.298 147.176 157.711 147.176 157.711Z" fill="url(#paint9_linear_424_4972)"/>
<path d="M140.473 153.851C126.2 156.748 127.955 174.804 127.955 174.804C126.927 187.906 130.751 194.402 135.65 197.497C138.997 199.611 143.211 199.806 146.744 198.023C150.278 196.24 152.619 192.733 152.909 188.784C153.173 185.218 153.474 181.829 153.739 180.625C154.379 177.707 154.748 150.952 140.473 153.851Z" fill="url(#paint10_linear_424_4972)"/>
<path d="M141.782 158.415C138.818 157.9 135.896 159.475 134.705 162.237C126.175 182.004 136.648 194.863 141.79 195.132C147.209 195.415 147.1 169.335 145.949 162.648C145.468 159.846 143.688 158.746 141.782 158.415Z" fill="#2A4E84"/>
<path d="M7.62719 422.194C7.38328 420.393 7.71544 418.531 8.53061 417.117C9.34577 415.703 10.5589 414.883 11.8394 414.883H445.528C447.212 414.883 448.779 416.112 449.686 418.144C450.593 420.176 450.715 422.73 450.009 424.919L445.309 439.489C444.232 442.826 441.9 444.962 439.334 444.962H14.8144C12.4267 444.962 10.376 442.539 9.92185 439.181L7.62719 422.194Z" fill="#192E4D"/>
<path d="M439.333 445.5H14.8135C12.1594 445.5 9.87756 442.873 9.38975 439.253L7.09509 422.266C6.83513 420.343 7.18976 418.369 8.0659 416.849C8.98216 415.258 10.3574 414.345 11.8401 414.345H445.529C447.44 414.345 449.178 415.682 450.178 417.924C451.142 420.085 451.271 422.761 450.521 425.083L445.821 439.653C444.674 443.205 442.127 445.5 439.333 445.5ZM8.15897 422.122L10.4536 439.109C10.8692 442.189 12.7034 444.425 14.8135 444.425H439.333C441.652 444.425 443.796 442.423 444.796 439.325L449.496 424.756C450.167 422.679 450.053 420.289 449.194 418.366C448.371 416.523 447.001 415.424 445.526 415.424H11.8368C10.7489 415.424 9.71228 416.139 8.9934 417.388C8.23439 418.704 7.93111 420.43 8.15897 422.122Z" fill="#91B3FA"/>
<path d="M236.955 249.333C234.505 269.356 223.485 350.706 220.331 373.949C219.888 377.219 222.482 380.094 225.778 379.999L412.724 374.647C415.171 374.577 417.256 372.855 417.787 370.465L446.868 239.462C447.637 235.998 444.88 232.761 441.34 232.968L241.945 244.65C239.367 244.801 237.269 246.77 236.955 249.333Z" fill="#254574"/>
<path d="M312.1 331.486L284.471 409.929L348.716 411.292L354.066 331.958C354.317 328.236 351.231 325.144 347.508 325.392L317.506 327.383C315.046 327.547 312.92 329.16 312.1 331.486Z" fill="#254574"/>
<path d="M349.217 411.839L348.704 411.828L283.717 410.451L311.593 331.308C312.485 328.777 314.791 327.026 317.469 326.847L347.471 324.855C349.405 324.73 351.291 325.438 352.656 326.806C354.022 328.173 354.731 330.066 354.601 331.995L349.217 411.839ZM285.225 409.408L348.216 410.743L353.531 331.921C353.64 330.302 353.044 328.713 351.897 327.565C350.75 326.416 349.164 325.822 347.544 325.928L317.541 327.92C315.293 328.069 313.356 329.539 312.607 331.664L285.225 409.408Z" fill="#91B3FA"/>
<path d="M258.425 411.046C257.717 413.205 259.323 415.425 261.595 415.425H362.207C364.05 415.425 365.543 413.931 365.543 412.088V407.772C365.543 405.873 363.961 404.356 362.063 404.437L261.451 408.753C260.063 408.812 258.858 409.725 258.425 411.046Z" fill="#254574"/>
<path d="M362.206 415.961H261.594C260.338 415.961 259.194 415.377 258.457 414.359C257.72 413.342 257.521 412.072 257.915 410.878C258.414 409.353 259.827 408.284 261.429 408.215L362.041 403.899C363.106 403.852 364.117 404.234 364.887 404.973C365.658 405.711 366.081 406.705 366.081 407.772V412.088C366.081 414.223 364.343 415.961 362.206 415.961ZM362.211 404.97C362.169 404.97 362.129 404.971 362.087 404.973L261.475 409.289C260.317 409.339 259.296 410.112 258.935 411.213C258.651 412.077 258.796 412.993 259.328 413.729C259.861 414.464 260.687 414.886 261.596 414.886H362.208C363.751 414.886 365.008 413.631 365.008 412.085V407.769C365.008 406.998 364.701 406.279 364.144 405.746C363.617 405.244 362.935 404.97 362.211 404.97Z" fill="#91B3FA"/>
<path d="M234.13 332.093L232.803 331.926L241.988 259.468C242.557 254.972 246.251 251.513 250.772 251.24L423.081 240.831L423.162 242.165L250.852 252.574C246.972 252.809 243.801 255.776 243.313 259.634L234.13 332.093Z" fill="#91B3FA"/>
<path d="M230.175 352.591L228.197 368.278L229.523 368.445L231.501 352.758L230.175 352.591Z" fill="#91B3FA"/>
</g>
<defs>
<linearGradient id="paint0_linear_424_4972" x1="487.753" y1="450.882" x2="157.292" y2="161.81" gradientUnits="userSpaceOnUse">
<stop stop-color="#DAE3FE"/>
<stop offset="1" stop-color="#E9EFFD"/>
</linearGradient>
<linearGradient id="paint1_linear_424_4972" x1="210.742" y1="518.01" x2="178.486" y2="410.452" gradientUnits="userSpaceOnUse">
<stop stop-color="#4F52FF"/>
<stop offset="1" stop-color="#4042E2"/>
</linearGradient>
<linearGradient id="paint2_linear_424_4972" x1="182.777" y1="360.425" x2="265.212" y2="383.877" gradientUnits="userSpaceOnUse">
<stop stop-color="#FEBBBA"/>
<stop offset="1" stop-color="#FF928E"/>
</linearGradient>
<linearGradient id="paint3_linear_424_4972" x1="94.2508" y1="299.066" x2="163.05" y2="207.717" gradientUnits="userSpaceOnUse">
<stop stop-color="#FEBBBA"/>
<stop offset="1" stop-color="#FF928E"/>
</linearGradient>
<linearGradient id="paint4_linear_424_4972" x1="130.845" y1="379.428" x2="-60.6329" y2="771.755" gradientUnits="userSpaceOnUse">
<stop stop-color="#FEBBBA"/>
<stop offset="1" stop-color="#FF928E"/>
</linearGradient>
<linearGradient id="paint5_linear_424_4972" x1="189.935" y1="171.977" x2="114.265" y2="217.528" gradientUnits="userSpaceOnUse">
<stop stop-color="#FEBBBA"/>
<stop offset="1" stop-color="#FF928E"/>
</linearGradient>
<linearGradient id="paint6_linear_424_4972" x1="182.548" y1="159.71" x2="106.878" y2="205.261" gradientUnits="userSpaceOnUse">
<stop stop-color="#FEBBBA"/>
<stop offset="1" stop-color="#FF928E"/>
</linearGradient>
<linearGradient id="paint7_linear_424_4972" x1="178.711" y1="163.833" x2="123.886" y2="237.629" gradientUnits="userSpaceOnUse">
<stop stop-color="#4F52FF"/>
<stop offset="1" stop-color="#4042E2"/>
</linearGradient>
<linearGradient id="paint8_linear_424_4972" x1="200.14" y1="183.322" x2="167.532" y2="225.951" gradientUnits="userSpaceOnUse">
<stop stop-color="#4F52FF"/>
<stop offset="1" stop-color="#4042E2"/>
</linearGradient>
<linearGradient id="paint9_linear_424_4972" x1="236.601" y1="112.141" x2="3.97181" y2="192.75" gradientUnits="userSpaceOnUse">
<stop stop-color="#4F52FF"/>
<stop offset="1" stop-color="#4042E2"/>
</linearGradient>
<linearGradient id="paint10_linear_424_4972" x1="166.857" y1="136.639" x2="139.981" y2="178.912" gradientUnits="userSpaceOnUse">
<stop stop-color="#4F52FF"/>
<stop offset="1" stop-color="#4042E2"/>
</linearGradient>
<clipPath id="clip0_424_4972">
<rect width="451" height="445" fill="white" transform="translate(0 0.5)"/>
</clipPath>
</defs>
</svg>
